<svg
  width="32"
  height="32"
  viewBox="0 0 127 127"
  xmlns="http://www.w3.org/2000/svg"
>
  <path
    fill="#373737"
    d="M544.558-113.035a67.499 67.499 0 0 0-16.407 2.064c-.344.134-.592.267-.74.401-.744.887-.984 1.894-.557 2.641a64.774 64.774 0 0 0-7.097 2.513c-.11-1.012-.85-1.8-2.039-1.825-.237 0-.758.17-1.45.455a66.082 66.082 0 0 0-1.115.498 67.502 67.502 0 0 0-5.322 2.91c-1 .593-1.983 1.21-2.95 1.854-.284.19-.618.43-.939.655a67.507 67.507 0 0 0-2.833 2.09c-.309.238-.62.477-.91.707a67.502 67.502 0 0 0-3.68 3.185 67.5 67.5 0 0 0-12.24 15.32c-.207.364-.41.738-.615 1.11-.516.924-1.01 1.86-1.483 2.806-.23.462-.468.944-.705 1.44a67.5 67.5 0 0 0-6.418 28.676c0 37.279 30.22 67.5 67.5 67.5s67.5-30.22 67.5-67.5-30.22-67.5-67.5-67.5z"
    transform="translate(-448.788 106.337) scale(.94074)"
  >
  </path>
  <path
    fill="#9af9ac"
    d="M517.321 11.265c-.181-.002-1.461-.633-2.844-1.402-1.382-.77-3.05-1.738-3.704-2.152-.655-.413-2.56-1.77-4.233-3.017-1.674-1.246-4.596-3.819-6.495-5.717-1.898-1.898-4.505-4.86-5.792-6.582-1.286-1.722-3.186-4.582-4.22-6.357-1.035-1.774-2.336-4.248-2.891-5.497-1.01-2.27-1.01-2.27-.196-3.995.448-.948 1.298-2.272 1.887-2.942.708-.804 1.76-1.557 3.093-2.216 1.95-.964 2.117-.998 4.811-.998 2.57 0 2.928.064 4.511.816.946.449 2.758 1.559 4.027 2.467 1.268.908 3.771 2.505 5.562 3.55 1.791 1.044 4.444 2.41 5.896 3.038 1.451.626 3.184 1.536 3.851 2.02.667.485 1.594 1.458 2.06 2.163.468.705 1.034 1.914 1.258 2.687.316 1.087.388 2.408.318 5.826-.087 4.202-.127 4.487-.806 5.781-.393.749-1.363 2.104-2.154 3.012-.792.907-1.756 2.275-2.143 3.039-.386.764-.873 2.028-1.08 2.81-.208.78-.38 1.926-.382 2.544-.002.723-.12 1.124-.334 1.122zM485.802-50.16c-4.2.103-4.2.103-4.019-1.712.1-.998.36-2.886.58-4.196a73.26 73.26 0 0 1 1.035-4.915 74.94 74.94 0 0 1 1.57-5.21 84.668 84.668 0 0 1 2.013-5.139 65.688 65.688 0 0 1 2.392-4.789 98.061 98.061 0 0 1 2.453-4.1c.63-.977 2.016-2.9 3.082-4.274 1.065-1.374 3.242-3.844 4.836-5.49 2.898-2.992 2.898-2.992 7.066-2.992 4.045 0 4.209.022 5.577.737 1.148.6 1.553 1.006 2.172 2.183.642 1.217.74 1.661.627 2.805-.074.748-.317 1.7-.54 2.117-.221.416-3.58 4.448-7.464 8.96-3.883 4.51-7.403 8.731-7.821 9.379-.418.648-1.003 1.825-1.3 2.617-.295.792-.657 2.702-.803 4.246-.19 2-.456 3.225-.93 4.262-.364.8-1.209 2.012-1.877 2.693-.685.698-1.919 1.559-2.831 1.976-1.51.69-1.896.746-5.818.842zm114.164-16.033c-.097.106-.736-1.144-1.42-2.778-.684-1.635-1.99-4.253-2.902-5.82-.913-1.565-2.4-3.891-3.305-5.168-.905-1.277-2.7-3.51-3.988-4.961-1.289-1.452-3.441-3.59-4.784-4.75-1.342-1.16-3.477-2.85-4.743-3.756-1.266-.906-3.565-2.372-5.11-3.257-1.544-.886-4.223-2.21-5.953-2.945-1.73-.734-4.484-1.72-6.12-2.191-1.637-.471-3.04-.92-3.117-.998-.078-.078.349-.99.947-2.03 1.005-1.742 1.143-1.874 1.794-1.72.388.09 1.935.572 3.439 1.069a71.738 71.738 0 0 1 5.42 2.094c1.477.655 3.64 1.712 4.806 2.348 1.167.636 3.284 1.934 4.706 2.885 1.421.95 3.505 2.477 4.63 3.392 1.125.916 3.103 2.678 4.395 3.916 1.292 1.239 3.295 3.383 4.451 4.765 1.156 1.383 2.973 3.823 4.038 5.424 1.065 1.6 2.54 4.045 3.28 5.433 1.345 2.521 1.345 2.521.528 5.688-.449 1.742-.895 3.254-.992 3.36z"
    transform="translate(-448.788 106.337) scale(.94074)"
  >
  </path>
  <path
    fill="#f7cb5d"
    d="M545.79-9.713c-4.274.146-4.274.146-4.565-1.277-.16-.782-.581-3.149-.935-5.259-.354-2.11-.792-5.115-.973-6.677-.18-1.563-.277-2.89-.215-2.95.063-.06 1.007.066 2.098.282 1.322.26 2.823.346 4.498.254 1.382-.075 3.228-.326 4.101-.557.873-.23 2.54-.876 3.704-1.433 1.164-.558 2.86-1.576 3.767-2.262.907-.686 2.301-2.033 3.098-2.993.797-.96 1.931-2.707 2.522-3.883.59-1.176 1.323-3.14 1.628-4.365.463-1.86.534-2.774.43-5.556-.097-2.642-.266-3.767-.816-5.446-.382-1.164-1.223-3.019-1.87-4.12-.647-1.103-1.93-2.783-2.85-3.735-.922-.952-2.509-2.266-3.527-2.92-1.02-.653-2.666-1.51-3.66-1.904-.993-.394-2.7-.887-3.793-1.096-1.093-.21-2.78-.376-3.75-.37-.969.004-2.596.171-3.614.37-1.019.198-1.903.311-1.966.251-.062-.06.034-1.37.213-2.912.179-1.542.612-4.547.962-6.678.35-2.13.773-4.514.94-5.296.306-1.423.306-1.423 4.576-1.277 2.425.083 5.128.335 6.255.583a50.15 50.15 0 0 1 3.969 1.086c1.091.356 3.297 1.302 4.902 2.101 1.605.8 3.933 2.216 5.174 3.147 1.242.932 3.333 2.82 4.648 4.195 1.315 1.375 3.013 3.43 3.773 4.568.76 1.136 1.904 3.145 2.542 4.465.637 1.319 1.454 3.291 1.815 4.382a49.071 49.071 0 0 1 1.138 4.234c.368 1.715.482 3.41.482 7.143 0 3.734-.114 5.429-.482 7.144a49.071 49.071 0 0 1-1.138 4.234c-.36 1.091-1.178 3.056-1.816 4.365-.638 1.31-1.789 3.334-2.558 4.498-.783 1.187-2.738 3.458-4.448 5.168-1.71 1.71-3.982 3.666-5.169 4.45-1.164.768-3.188 1.919-4.498 2.557-1.31.638-3.274 1.454-4.365 1.814-1.092.36-2.878.851-3.969 1.092-1.127.248-3.83.5-6.258.583z"
    transform="translate(-448.788 106.337) scale(.94074)"
  >
  </path>
  <path
    fill="#e66577"
    d="M545.433-29.898c-1.09.064-2.282.064-2.645 0-.364-.064-1.41-.307-2.323-.54-.964-.247-1.763-.617-1.905-.88-.134-.25-.36-3.57-.503-7.378a187.29 187.29 0 0 1 0-13.843c.143-3.808.368-7.124.5-7.37.132-.247.989-.665 1.905-.93 1.03-.297 2.57-.485 4.045-.493 1.31-.007 3.037.144 3.837.337.8.193 2.348.783 3.44 1.311 1.451.702 2.52 1.494 3.98 2.95 1.205 1.2 2.334 2.637 2.85 3.625.47.9 1.09 2.556 1.378 3.68.288 1.124.523 2.84.523 3.811 0 .973-.235 2.688-.523 3.812-.287 1.124-.911 2.78-1.386 3.68-.51.966-1.678 2.45-2.851 3.623-1.298 1.297-2.584 2.286-3.709 2.851-.947.476-2.376 1.04-3.175 1.252-.8.212-2.346.438-3.438.502z"
    transform="translate(-448.788 106.337) scale(.94074)"
  >
  </path>
  <path
    fill="#4986d7"
    d="M546.492 17.446c-2.11.071-5.087.027-6.615-.098a80.32 80.32 0 0 1-5.424-.664c-1.455-.241-3.955-.778-5.556-1.194-1.6-.415-3.744-1.042-4.762-1.392-1.853-.637-1.853-.637-1.821-2.99.023-1.734.172-2.673.566-3.565.295-.666 1.28-2.095 2.191-3.175.911-1.08 2.054-2.817 2.54-3.86.494-1.058 1-2.696 1.146-3.704.144-.995.262-3.177.262-4.85 0-1.674-.175-3.877-.39-4.895-.214-1.02-.768-2.626-1.23-3.572-.561-1.15-1.46-2.334-2.713-3.572-1.031-1.019-2.41-2.111-3.065-2.428-.655-.317-2.835-1.369-4.844-2.337-2.092-1.009-5.427-2.95-7.805-4.546-2.284-1.532-4.696-3.061-5.362-3.399-.665-.337-1.975-.815-2.91-1.062-1.04-.274-2.677-.446-4.214-.443-1.802.004-3.001.162-4.234.555-.946.302-2.478.999-3.404 1.548-.927.55-2.382 1.744-3.233 2.654-1.55 1.655-1.55 1.655-1.95.265-.22-.765-.63-2.522-.911-3.904a67.556 67.556 0 0 1-.786-5.027 155.224 155.224 0 0 1-.448-4.961c-.172-2.448-.172-2.448 4.034-2.448 2.923 0 4.68-.123 5.761-.405.856-.222 2.27-.786 3.144-1.251.874-.466 2.193-1.402 2.932-2.08.739-.679 1.754-1.916 2.255-2.75.502-.834 1.13-2.162 1.397-2.952.266-.789.598-2.621.736-4.071.154-1.617.472-3.15.822-3.964.392-.91 2.933-4.09 8.087-10.117 4.736-5.54 7.78-9.328 8.232-10.245.634-1.288.717-1.759.717-4.101 0-2.312-.09-2.835-.704-4.147-.387-.826-1.19-2.03-1.786-2.675-.595-.645-1.766-1.537-2.603-1.982-.837-.445-1.968-.878-2.514-.963l-1.97-.309c-.98-.154-.98-.154.991-1.421 1.084-.697 3.36-2.002 5.057-2.9 1.697-.898 3.227-1.803 3.4-2.011.364-.698.232-1.41.105-2.045l7.047-2.51c.296.692.397.982 1.148 1.383.725.3 1.22.264 3.814-.274 1.644-.34 4.144-.766 5.556-.946 1.412-.18 4.889-.32 7.726-.31 3.163.01 6.217.173 7.893.42 1.503.222 2.787.457 2.853.523.066.067-.355.94-.936 1.942-1.057 1.82-1.057 1.82-4.441 1.82-3.19 0-3.464.043-4.782.738-.77.405-1.866 1.203-2.437 1.774-.57.572-1.27 1.493-1.553 2.048-.283.555-.886 2.282-1.339 3.838-.453 1.556-1.292 4.768-1.863 7.138-.572 2.37-1.4 6.214-1.84 8.542a213.94 213.94 0 0 0-1.33 7.937c-.29 2.038-.706 5.431-.924 7.541-.218 2.11-.535 6.337-.704 9.393-.186 3.356-.245 8.541-.149 13.097.088 4.147.342 9.564.565 12.038.223 2.474.588 5.927.81 7.673.224 1.746.762 5.259 1.197 7.805.51 2.928 1.08 5.846 1.71 8.75a216.125 216.125 0 0 0 1.996 8.07c.592 2.173 1.354 4.563 1.693 5.312.34.75 1.101 1.847 1.693 2.439.592.592 1.706 1.407 2.475 1.812 1.307.69 1.595.735 4.44.708 2.182-.02 4.017-.23 6.483-.74 1.891-.391 5.095-1.261 7.118-1.933 2.024-.672 5.298-2.025 7.276-3.006 1.979-.981 4.848-2.62 6.375-3.64 1.528-1.022 3.922-2.813 5.32-3.98 1.397-1.166 3.584-3.229 4.86-4.583 1.274-1.354 3.13-3.544 4.125-4.867.995-1.323 2.43-3.406 3.192-4.63.76-1.224 2.121-3.773 3.024-5.665s2.007-4.514 2.454-5.827a79.593 79.593 0 0 0 1.49-5.064 77.566 77.566 0 0 0 1.122-5.417c.32-1.968.449-4.423.457-8.695.01-4.346-.112-6.774-.446-8.996-.458-3.042-.458-3.042.699-7.011 1.156-3.969 1.156-3.969 1.748-1.986.325 1.091.866 3.294 1.202 4.895.336 1.601.736 4.043.888 5.425.152 1.383.35 3.704.44 5.16.09 1.455.034 4.328-.125 6.384-.158 2.057-.514 5.033-.79 6.615-.278 1.582-.752 3.842-1.056 5.023-.303 1.181-.98 3.384-1.506 4.895a84.882 84.882 0 0 1-2.194 5.525c-.681 1.528-2.086 4.207-3.121 5.953-1.035 1.747-2.811 4.426-3.947 5.953-1.135 1.528-3.737 4.452-5.782 6.497-2.046 2.046-4.97 4.648-6.497 5.783-1.528 1.135-4.207 2.911-5.953 3.947-1.747 1.035-4.428 2.441-5.958 3.124-1.53.684-4.168 1.72-5.861 2.304-1.693.584-4.453 1.37-6.132 1.746-1.68.377-4.282.854-5.781 1.06-1.5.206-4.453.433-6.563.503z"
    transform="translate(-448.788 106.337) scale(.94074)"
  >
  </path>
  <path
    fill="#336389"
    d="M550.328 8.196c-.813.085-1.73-.005-2.381-.236-.582-.206-1.369-.72-1.749-1.142-.38-.422-.938-1.588-1.24-2.59a178.679 178.679 0 0 1-1.378-4.999 491.67 491.67 0 0 0-.947-3.597c-.103-.364.34-.444 3.259-.586 1.858-.09 4.392-.343 5.63-.56a53.467 53.467 0 0 0 4.63-1.086c1.308-.378 3.33-1.1 4.495-1.602a49.135 49.135 0 0 0 4.233-2.14 54.804 54.804 0 0 0 4.101-2.681c1.092-.8 3.068-2.539 4.39-3.862 1.324-1.324 3.068-3.306 3.876-4.405.807-1.1 2.078-3.063 2.824-4.363.745-1.3 1.828-3.574 2.407-5.054.578-1.48 1.348-3.916 1.711-5.414.363-1.498.802-4.248.977-6.11.246-2.632.246-4.141 0-6.773-.175-1.862-.614-4.612-.977-6.11-.363-1.498-1.133-3.935-1.711-5.414-.579-1.48-1.662-3.754-2.407-5.054-.746-1.3-1.994-3.227-2.775-4.283-.78-1.055-2.223-2.771-3.206-3.813-.983-1.042-2.743-2.664-3.91-3.604-1.169-.94-3.219-2.367-4.556-3.17-1.337-.802-3.486-1.914-4.775-2.47-1.29-.556-3.351-1.316-4.58-1.688a47.123 47.123 0 0 0-4.618-1.092c-1.31-.228-3.901-.488-5.76-.579-2.918-.142-3.361-.222-3.258-.586.065-.233.492-1.851.947-3.597a184.237 184.237 0 0 1 1.385-5.027c.369-1.23.835-2.133 1.384-2.685.456-.458 1.286-.959 1.843-1.113.7-.193 1.683-.198 3.163-.015 1.182.145 3.48.56 5.107.923 1.627.363 4.068 1.027 5.424 1.476a63.107 63.107 0 0 1 4.846 1.88c1.31.585 3.545 1.724 4.967 2.531 1.422.807 3.862 2.425 5.424 3.594 1.561 1.169 4.156 3.438 5.766 5.043 1.61 1.605 3.884 4.202 5.055 5.772 1.17 1.57 2.885 4.189 3.81 5.82.926 1.63 2.308 4.513 3.072 6.405.764 1.893 1.742 4.815 2.173 6.493.43 1.679.988 4.357 1.238 5.953.308 1.97.454 4.473.454 7.796 0 3.324-.146 5.826-.454 7.797-.25 1.595-.807 4.274-1.238 5.953-.43 1.678-1.423 4.636-2.205 6.572s-2.164 4.818-3.072 6.404c-.908 1.586-2.507 4.027-3.553 5.423-1.047 1.397-2.818 3.54-3.937 4.763-1.12 1.222-3.193 3.192-4.608 4.376-1.415 1.185-3.713 2.915-5.106 3.845-1.393.93-3.953 2.392-5.689 3.248-1.735.856-3.988 1.865-5.007 2.242a70.735 70.735 0 0 1-4.173 1.35c-1.277.367-3.598.899-5.16 1.184-1.56.285-3.433.58-4.16.656z"
    transform="translate(-448.788 106.337) scale(.94074)"
  >
  </path>
</svg>
