<svg width="271.442" height="271.479" xmlns="http://www.w3.org/2000/svg"><path style="fill:#000" d="M138.966 280.577C24.528 269.083-27.159 134.447 51.24 52.064c80.127-84.2 221.375-35.381 233.247 80.615 8.388 81.954-64.502 156.035-145.52 147.898Zm29.75-13.549c4.016-.612 6.75-1.516 6.75-2.231 0-1.714-49.85-189.801-50.468-190.42-4.411-4.41-33.493 7.525-39.458 16.195-14.228 20.679-8.155 36.388 23.495 60.78 61.503 47.397 38.813 100.057-35.069 81.39-7.7-1.945-14.206-3.543-14.458-3.55-1.245-.035 9.332 9.797 15.795 14.683 26.419 19.973 59.889 28.269 93.413 23.153zm22.844-5.71c69.17-23.806 101.563-107.526 67.103-173.433-6.25-11.955-6.209-11.938-11.078-4.646-7.693 11.52-8.075 25.197-1.635 58.44 9.658 49.845 3.403 73.646-22.711 86.421-28.194 13.792-41.737-2.378-41.787-49.895-.066-63.607-7.544-83.571-28.656-76.51-10.193 3.41-9.756 2.136-5.834 17 19.13 72.497 37.622 142.223 37.988 143.234.567 1.564.19 1.599 6.61-.61zm-78.064-39.239c27.19-5.83 20.089-34.193-15.272-60.99-31.064-23.541-38.413-38.484-31.082-63.193 6.336-21.358 28.825-37.717 51.85-37.717 2.01 0 2.494-.402 2.106-1.75-.276-.962-2.143-8.05-4.148-15.75-4.45-17.086-3.375-16.077-12.994-12.192-67.6 27.305-97.104 105.606-64.386 170.875 3.85 7.682 3.85 7.682 12.123 10.19 34.733 10.531 49.81 13.1 61.803 10.527zm101.675-6.062c21.03-7.869 25.1-25.954 16.504-73.338-7.798-42.983-6.563-54.937 7.45-72.142 9.684-11.889-31.923-40.51-68.044-46.81-15.084-2.63-48.615-1.415-48.615 1.763 0 .587 3.406 13.92 7.569 29.628 4.162 15.709 8.015 30.286 8.56 32.395.79 3.046 1.34 3.687 2.682 3.122 38.525-16.228 51.893 2.65 54.2 76.544 1.57 50.234 3.456 54.913 19.694 48.838z" transform="translate(-13.704 -9.71)"/></svg>