<?xml version="1.0" encoding="UTF-8" standalone="no"?>
<!-- Created with Inkscape (http://www.inkscape.org/) -->

<svg
   version="1.1"
   id="svg2"
   width="271.4422"
   height="271.47946"
   viewBox="0 0 271.4422 271.47946"
   sodipodi:docname="swung.svg"
   inkscape:version="1.2.2 (732a01da63, 2022-12-09)"
   xmlns:inkscape="http://www.inkscape.org/namespaces/inkscape"
   xmlns:sodipodi="http://sodipodi.sourceforge.net/DTD/sodipodi-0.dtd"
   xmlns="http://www.w3.org/2000/svg"
   xmlns:svg="http://www.w3.org/2000/svg">
  <defs
     id="defs6" />
  <sodipodi:namedview
     id="namedview4"
     pagecolor="#ffffff"
     bordercolor="#000000"
     borderopacity="0.25"
     inkscape:showpageshadow="2"
     inkscape:pageopacity="0.0"
     inkscape:pagecheckerboard="0"
     inkscape:deskcolor="#d1d1d1"
     showgrid="false"
     inkscape:zoom="2.2250293"
     inkscape:cx="-10.336942"
     inkscape:cy="130.33536"
     inkscape:window-width="2520"
     inkscape:window-height="1496"
     inkscape:window-x="2869"
     inkscape:window-y="-11"
     inkscape:window-maximized="1"
     inkscape:current-layer="g8" />
  <g
     inkscape:groupmode="layer"
     inkscape:label="Image"
     id="g8"
     transform="translate(-13.703683,-9.7104952)">
    <path
       style="fill:#000000"
       d="M 138.9662,280.57663 C 24.528087,269.08281 -27.159383,134.4467 51.238897,52.06351 131.36559,-32.13592 272.61437,16.68291 284.48627,132.67918 292.87402,214.63297 219.984,288.7138 138.9662,280.57663 Z m 29.75,-13.54817 c 4.01626,-0.61284 6.75,-1.51656 6.75,-2.23141 0,-1.7145 -49.85004,-189.80124 -50.46831,-190.41952 -4.41125,-4.41125 -33.492843,7.52448 -39.457913,16.1944 -14.22752,20.67901 -8.15498,36.38799 23.495253,60.7796 61.50272,47.39778 38.81295,100.05779 -35.069033,81.3907 -7.7,-1.94549 -14.20619,-3.54306 -14.45821,-3.55015 -1.24481,-0.035 9.33158,9.79701 15.79482,14.68321 26.419223,19.9729 59.889063,28.26863 93.413393,23.15317 z m 22.84345,-5.71007 c 69.17107,-23.80681 101.56329,-107.52601 67.10382,-173.43298 -6.25097,-11.95557 -6.20921,-11.93805 -11.07825,-4.6466 -7.69291,11.52022 -8.0755,25.19731 -1.63475,58.44037 9.65726,49.8447 3.40221,73.64622 -22.71146,86.42083 -28.19436,13.79247 -41.73733,-2.37816 -41.78693,-49.8946 -0.0664,-63.60741 -7.54393,-83.57173 -28.65654,-76.51034 -10.19295,3.40916 -9.75593,2.13571 -5.83388,16.99948 19.12953,72.49717 37.62246,142.22373 37.98879,143.23463 0.56672,1.56386 0.18939,1.59874 6.6092,-0.61079 z m -78.06383,-39.23898 c 27.19067,-5.83136 20.08881,-34.1935 -15.272163,-60.9912 -31.06319,-23.54068 -38.41298,-38.48346 -31.08208,-63.19256 6.3367,-21.35809 28.82501,-37.71647 51.849853,-37.71647 2.01004,0 2.4941,-0.40204 2.10704,-1.75 -0.27638,-0.9625 -2.14335,-8.05 -4.14883,-15.75 C 112.49955,25.59314 113.57486,26.60215 103.95649,30.48717 36.356647,57.79188 6.8522074,136.09293 39.569637,201.36172 c 3.85105,7.68255 3.85105,7.68255 12.1238,10.19086 34.73229,10.5309 49.809063,13.09893 61.802383,10.52683 z m 101.67549,-6.06286 c 21.03017,-7.86839 25.10009,-25.95377 16.50381,-73.33737 -7.79798,-42.98327 -6.56348,-54.9373 7.45017,-72.14229 9.68328,-11.88844 -31.92319,-40.51074 -68.04446,-46.80976 -15.08354,-2.63035 -48.61463,-1.41477 -48.61463,1.7624 0,0.58697 3.40583,13.91977 7.56852,29.62843 4.16269,15.70867 8.01516,30.28632 8.56105,32.39478 0.78859,3.04588 1.33955,3.68738 2.68148,3.12211 38.52489,-16.22812 51.89257,2.65034 54.20038,76.54433 1.56887,50.2341 3.45557,54.91283 19.69368,48.83737 z"
       id="path172" />
  </g>
</svg>
