<svg width="178.987" height="177.888" xmlns="http://www.w3.org/2000/svg"><path fill="currentColor" fill-opacity="1" d="M139.486 152c-.792 0-2.089-1.012-2.882-2.25-.792-1.238-1.962-4.226-2.599-6.64-.637-2.415-1.554-15.69-2.038-29.5-.659-18.772-1.355-27.035-2.757-32.738-1.032-4.195-3.087-9.692-4.566-12.216-1.479-2.523-4.286-5.807-6.238-7.296-2.526-1.926-5.096-2.836-8.908-3.152-3.41-.283-7.088.146-10.122 1.18-2.62.893-5.053 1.283-5.406.868-.352-.416-3.024-11.234-5.938-24.04-2.913-12.807-4.974-23.607-4.58-24 .394-.394 7.766-.711 16.382-.706 13.354.009 16.847.35 23.666 2.315 4.4 1.267 11.597 4.104 15.994 6.304s10.472 5.86 13.5 8.135c3.028 2.274 7.924 6.632 10.88 9.685 2.955 3.053 7.056 8.026 9.112 11.051 2.057 3.025 5.148 8.292 6.868 11.703 1.72 3.412 4.257 10.1 5.637 14.862C186.87 80.327 188 84.84 188 85.593c0 .753-1.238 1.632-2.75 1.953-1.512.321-5.864 1.536-9.67 2.7-5.062 1.546-8.06 3.208-11.157 6.184-3.363 3.23-4.379 5.027-4.927 8.71-.485 3.259-.025 7.757 1.544 15.111 1.524 7.141 2.005 11.708 1.513 14.36-.52 2.805-2.057 5.18-5.51 8.52-2.97 2.871-6.94 5.435-10.453 6.75-3.116 1.165-6.313 2.119-7.104 2.119z" transform="translate(-10.305 -11.51)"/><path fill="currentColor" fill-opacity="1" d="M70.587 152.472c-3.348.202-8.337.033-11.087-.376-2.75-.408-12.133-2.047-20.85-3.642l-15.85-2.901-3.285-6.527c-1.807-3.59-4.218-9.676-5.358-13.526-1.14-3.85-2.586-11.253-3.213-16.45-.866-7.178-.854-11.724.05-18.903.654-5.199 2.272-12.77 3.595-16.824 1.324-4.054 3.81-10.173 5.527-13.597 1.716-3.424 5.065-8.969 7.442-12.321 2.377-3.353 7.656-9.203 11.73-13 4.074-3.798 10.875-8.882 15.114-11.299 4.238-2.416 10.667-5.468 14.286-6.782 3.62-1.314 6.81-2.16 7.088-1.881.28.279 1.784 5.806 3.343 12.282 1.56 6.476 2.846 12.1 2.858 12.497.013.397-2.564 1.463-5.727 2.37-3.162.906-8.99 3.215-12.952 5.131-3.961 1.917-9.388 5.58-12.06 8.142-2.671 2.561-6.18 7.352-7.798 10.646-2.46 5.01-2.94 7.214-2.94 13.489 0 6.015.492 8.463 2.484 12.363 1.366 2.675 4.846 7.022 7.732 9.66 2.887 2.639 9.9 8.388 15.584 12.776 5.684 4.388 11.61 9.49 13.169 11.34 1.559 1.848 3.44 4.81 4.183 6.579.741 1.77 1.348 5.3 1.348 7.846 0 2.545-.75 5.896-1.665 7.447-.916 1.55-2.79 3.33-4.163 3.957-1.374.626-5.237 1.303-8.585 1.504z" transform="translate(-10.305 -11.51)"/><path fill="currentColor" fill-opacity="1" d="M123.312 186c-.206 0-.57-.563-.807-1.25-.238-.688-6.105-25.899-13.037-56.025C102.535 98.6 97.006 73.214 97.18 72.314c.176-.9 1.894-2.205 3.819-2.9 1.925-.694 4.862-1.296 6.527-1.338 1.666-.042 3.972.585 5.126 1.394 1.154.808 2.998 3.395 4.097 5.75 1.1 2.354 2.536 6.755 3.193 9.78.656 3.025 1.598 16.75 2.092 30.5.603 16.74 1.415 26.983 2.46 31 .858 3.3 2.377 7.125 3.375 8.5.997 1.375 3.348 3.555 5.222 4.846 2.847 1.96 4.265 2.26 8.616 1.826 3.287-.327 7.815-1.888 12.275-4.232 4.32-2.27 8.922-5.744 11.842-8.94 2.627-2.873 5.316-7.026 5.975-9.228.66-2.202 1.2-5.747 1.2-7.878 0-2.13-.984-8.239-2.188-13.574-1.752-7.769-1.96-10.201-1.043-12.212.63-1.382 2.491-3.208 4.138-4.06 1.647-.851 5.782-2.198 9.19-2.993l6.195-1.446-.62 8.696c-.341 4.782-1.517 12.198-2.614 16.479-1.096 4.28-3.752 11.48-5.902 16-2.15 4.519-5.522 10.441-7.495 13.161-1.973 2.72-6.417 7.836-9.874 11.37-3.458 3.532-8.762 8.107-11.787 10.165-3.025 2.059-7.965 4.99-10.978 6.514-3.012 1.524-7.92 3.61-10.906 4.638-2.986 1.027-5.598 1.868-5.804 1.868Z" transform="translate(-10.305 -11.51)"/><path fill="currentColor" fill-opacity="1" d="M104 189.296c-3.025.221-8.875.072-13-.33-4.125-.403-10.425-1.497-14-2.43-3.575-.935-10.255-3.453-14.844-5.596-4.588-2.144-11.113-5.892-14.5-8.33-3.386-2.437-8.379-6.71-11.096-9.497-2.717-2.787-4.735-5.271-4.485-5.52.25-.25 4.757.392 10.018 1.427 5.26 1.034 13.456 2.365 18.213 2.956 5.857.728 10.625.757 14.765.09 3.363-.542 7.99-2.084 10.283-3.427 2.455-1.44 5.19-4.23 6.655-6.791 2.081-3.636 2.489-5.658 2.49-12.348 0-6.284-.483-8.982-2.254-12.576-1.24-2.516-3.854-6.443-5.808-8.727-1.955-2.283-9.104-8.421-15.888-13.64-6.783-5.218-13.95-11.376-15.927-13.685-1.976-2.309-3.88-5.728-4.23-7.598-.351-1.87-.395-5.218-.097-7.438.298-2.22 1.816-6.098 3.373-8.616 1.69-2.733 5.251-6.234 8.832-8.683 3.3-2.257 9.163-5.101 13.028-6.32C79.394 50.997 83.07 50 83.698 50c.629 0 1.453 1.462 1.83 3.25.379 1.788 7.39 32.405 15.58 68.039 8.19 35.634 14.892 65.2 14.892 65.704 0 .504-1.463 1.138-3.25 1.41-1.788.27-5.725.673-8.75.893z" transform="translate(-10.305 -11.51)"/></svg>