<?xml version="1.0" encoding="UTF-8" standalone="no"?>
<!-- Created with Inkscape (http://www.inkscape.org/) -->

<svg
   width="135.00003mm"
   height="135.00003mm"
   viewBox="0 0 135.00003 135.00003"
   version="1.1"
   id="svg209"
   xml:space="preserve"
   inkscape:version="1.2.2 (732a01da63, 2022-12-09)"
   sodipodi:docname="geophysics-info.svg"
   xmlns:inkscape="http://www.inkscape.org/namespaces/inkscape"
   xmlns:sodipodi="http://sodipodi.sourceforge.net/DTD/sodipodi-0.dtd"
   xmlns="http://www.w3.org/2000/svg"
   xmlns:svg="http://www.w3.org/2000/svg"><sodipodi:namedview
     id="namedview211"
     pagecolor="#ffffff"
     bordercolor="#000000"
     borderopacity="0.25"
     inkscape:showpageshadow="2"
     inkscape:pageopacity="0.0"
     inkscape:pagecheckerboard="0"
     inkscape:deskcolor="#d1d1d1"
     inkscape:document-units="mm"
     showgrid="false"
     inkscape:zoom="0.70710678"
     inkscape:cx="494.97475"
     inkscape:cy="207.88939"
     inkscape:window-width="1920"
     inkscape:window-height="1120"
     inkscape:window-x="-11"
     inkscape:window-y="-11"
     inkscape:window-maximized="1"
     inkscape:current-layer="layer1" /><defs
     id="defs206" /><g
     inkscape:label="Layer 1"
     inkscape:groupmode="layer"
     id="layer1"
     transform="translate(-35.90314,-66.19599)"><g
       id="g4736"
       transform="translate(-441.15508,179.23095)"
       inkscape:export-filename="favicon-16x16.png"
       inkscape:export-xdpi="3.0103698"
       inkscape:export-ydpi="3.0103698"><path
         style="fill:#9af9ac;stroke-width:0.264583"
         d="m 517.32149,11.265066 c -0.1819,-0.0016 -1.46182,-0.632701 -2.84427,-1.402524 -1.38245,-0.769823 -3.04932,-1.737833 -3.70416,-2.151143 -0.65485,-0.4133 -2.55985,-1.77097 -4.23334,-3.01703 -1.67349,-1.24606 -4.59602,-3.81887 -6.49451,-5.71736 -1.89849,-1.898491 -4.50476,-4.860381 -5.79172,-6.581961 -1.28696,-1.7216 -3.18646,-4.58217 -4.22112,-6.35684 -1.03465,-1.77467 -2.33552,-4.24847 -2.89082,-5.49732 -1.00963,-2.27065 -1.00963,-2.27065 -0.1951,-3.99461 0.44799,-0.94817 1.29706,-2.27212 1.88681,-2.94212 0.70783,-0.80414 1.75899,-1.55741 3.09272,-2.21627 1.95068,-0.96363 2.11682,-0.9981 4.81136,-0.9981 2.56976,0 2.92721,0.0647 4.51072,0.81597 0.94588,0.44879 2.7578,1.55898 4.02648,2.46709 1.26868,0.90812 3.77194,2.50546 5.56279,3.54965 1.79086,1.0442 4.44379,2.41131 5.89539,3.03803 1.45161,0.62672 3.18471,1.536 3.85133,2.02063 0.66662,0.48462 1.594,1.4578 2.06085,2.16261 0.46685,0.70481 1.03271,1.91406 1.25748,2.68722 0.31597,1.08691 0.38797,2.40831 0.31747,5.82603 -0.0867,4.20197 -0.1265,4.48748 -0.8061,5.781271 -0.39321,0.74855 -1.3626,2.10364 -2.15421,3.01131 -0.79161,0.90767 -1.75555,2.2754 -2.1421,3.0394 -0.38655,0.764 -0.87294,2.02828 -1.08087,2.80952 -0.20794,0.78124 -0.37948,1.92645 -0.38121,2.544915 -0.002,0.723056 -0.1212,1.123463 -0.33387,1.121632 z m -31.51928,-61.426358 c -4.20106,0.1028 -4.20106,0.1028 -4.01905,-1.7116 0.10011,-0.99792 0.36065,-2.88596 0.57899,-4.19565 0.21833,-1.30969 0.68434,-3.52165 1.03557,-4.91548 0.35123,-1.39382 1.05777,-3.73847 1.57009,-5.21033 0.51232,-1.47186 1.41841,-3.78427 2.01353,-5.13869 0.59512,-1.35442 1.6713,-3.50935 2.39152,-4.78872 0.72021,-1.27938 1.8242,-3.12485 2.4533,-4.10104 0.62911,-0.9762 2.01578,-2.89909 3.08151,-4.2731 1.06572,-1.374 3.24195,-3.84455 4.83606,-5.4901 2.89839,-2.99191 2.89839,-2.99191 7.06594,-2.99191 4.04484,0 4.20906,0.0217 5.57773,0.73669 1.14739,0.5994 1.55216,1.00619 2.17202,2.18281 0.64116,1.21707 0.7404,1.66142 0.62659,2.80541 -0.0744,0.74761 -0.31705,1.70011 -0.53926,2.11667 -0.22221,0.41656 -3.58132,4.44831 -7.4647,8.95946 -3.88337,4.51114 -7.4029,8.73205 -7.82116,9.37978 -0.41826,0.64774 -1.00281,1.82539 -1.29899,2.61701 -0.29618,0.79161 -0.65804,2.70242 -0.80413,4.24625 -0.1893,2.00038 -0.45621,3.22511 -0.92889,4.26216 -0.3648,0.80037 -1.20978,2.01196 -1.87774,2.69243 -0.68543,0.69827 -1.91871,1.55911 -2.83117,1.97618 -1.50927,0.68986 -1.89587,0.7458 -5.81776,0.84177 z m 114.16352,-16.033 c -0.0968,0.10615 -0.73553,-1.14401 -1.41944,-2.77813 -0.68391,-1.63411 -1.99009,-4.25255 -2.90263,-5.81875 -0.91253,-1.56619 -2.39975,-3.89223 -3.30492,-5.16897 -0.90518,-1.27675 -2.69987,-3.50922 -3.98821,-4.96107 -1.28833,-1.45184 -3.44088,-3.58905 -4.78344,-4.74937 -1.34255,-1.16031 -3.47692,-2.85083 -4.74304,-3.75671 -1.26612,-0.90588 -3.56552,-2.37152 -5.10976,-3.25699 -1.54425,-0.88547 -4.22316,-2.21051 -5.95313,-2.94454 -1.72997,-0.734038 -4.48432,-1.720148 -6.12078,-2.191358 -1.63645,-0.47122 -3.03887,-0.92025 -3.11648,-0.99786 -0.0776,-0.0776 0.34871,-0.99067 0.94738,-2.02904 1.00499,-1.74313 1.14256,-1.87519 1.79356,-1.72165 0.3878,0.0915 1.93527,0.57286 3.43882,1.06977 1.50356,0.49691 3.94244,1.43938 5.41974,2.09438 1.4773,0.655 3.6404,1.71135 4.80689,2.34745 1.16649,0.6361 3.28389,1.934348 4.70534,2.884988 1.42145,0.95065 3.50505,2.47732 4.63021,3.39261 1.12516,0.91529 3.10282,2.67736 4.39479,3.9157 1.29197,1.23835 3.29511,3.38263 4.45142,4.76508 1.15631,1.38245 2.97343,3.82323 4.03804,5.42396 1.06461,1.60073 2.54077,4.04527 3.28035,5.43231 1.34468,2.52189 1.34468,2.52189 0.52797,5.68854 -0.44919,1.74166 -0.8959,3.2535 -0.99268,3.35965 z"
         id="path3838-5" /><path
         style="fill:#f7cb5d;stroke-width:0.264583"
         d="m 545.78995,-9.713102 c -4.27374,0.14624 -4.27374,0.14624 -4.56494,-1.27647 -0.16016,-0.7825 -0.581,-3.14913 -0.93519,-5.25918 -0.35419,-2.11005 -0.79178,-5.11496 -0.97243,-6.67756 -0.18065,-1.56261 -0.27741,-2.89028 -0.21504,-2.95039 0.0624,-0.0601 1.00638,0.067 2.09779,0.28238 1.32214,0.26096 2.8232,0.34589 4.49791,0.2545 1.38245,-0.0754 3.22792,-0.32608 4.10104,-0.55698 0.87313,-0.23089 2.54,-0.87596 3.70417,-1.43349 1.16417,-0.55752 2.8591,-1.57529 3.76653,-2.26169 0.90742,-0.68641 2.3016,-2.0332 3.09816,-2.99287 0.79657,-0.95968 1.93151,-2.70703 2.5221,-3.88303 0.59059,-1.17599 1.32324,-3.14016 1.62811,-4.36482 0.46311,-1.86029 0.53396,-2.77449 0.43061,-5.55625 -0.0982,-2.64223 -0.26683,-3.76655 -0.81705,-5.44626 -0.38134,-1.16416 -1.22268,-3.01831 -1.86963,-4.12033 -0.64695,-1.10201 -1.92985,-2.78255 -2.85088,-3.73453 -0.92104,-0.95198 -2.50805,-2.26564 -3.5267,-2.91925 -1.01864,-0.6536 -2.66511,-1.51067 -3.65881,-1.90458 -0.9937,-0.39392 -2.70081,-0.88728 -3.79358,-1.09636 -1.09278,-0.20909 -2.78006,-0.37578 -3.74953,-0.37043 -0.96946,0.005 -2.5961,0.17195 -3.61474,0.37022 -1.01865,0.19827 -1.90312,0.31153 -1.9655,0.25169 -0.0624,-0.0598 0.0332,-1.37037 0.21247,-2.91228 0.17923,-1.54191 0.61204,-4.54681 0.96178,-6.67756 0.34975,-2.13075 0.77326,-4.51427 0.94114,-5.29671 0.30523,-1.42263 0.30523,-1.42263 4.57558,-1.27648 2.42494,0.083 5.1279,0.33495 6.25473,0.58304 1.09141,0.24029 2.87735,0.72868 3.96875,1.08532 1.09141,0.35664 3.29734,1.30243 4.90206,2.10175 1.60473,0.79932 3.93327,2.21552 5.17453,3.1471 1.24127,0.93158 3.33272,2.81917 4.64767,4.19463 1.31495,1.37546 3.01283,3.43083 3.77306,4.56748 0.76024,1.13665 1.90389,3.14594 2.54145,4.46508 0.63756,1.31915 1.45455,3.29142 1.81552,4.38283 0.36098,1.0914 0.87307,2.9964 1.13799,4.23333 0.36745,1.71561 0.48168,3.40978 0.48168,7.14375 0,3.73397 -0.11423,5.42814 -0.48168,7.14375 -0.26492,1.23693 -0.77701,3.14193 -1.13799,4.23333 -0.36097,1.09141 -1.1783,3.05594 -1.81627,4.36563 -0.63798,1.30968 -1.78877,3.33375 -2.55732,4.49791 -0.78323,1.18641 -2.73851,3.45782 -4.44893,5.16823 -1.71041,1.71042 -3.98182,3.6657 -5.16823,4.44893 -1.16416,0.76855 -3.18823,1.91934 -4.49791,2.55732 -1.30969,0.63797 -3.27422,1.45455 -4.36563,1.81462 -1.0914,0.36007 -2.87734,0.85126 -3.96875,1.09155 -1.1273,0.24819 -3.83023,0.50005 -6.2581,0.58313 z"
         id="path3836-2" /><path
         style="fill:#e66577;stroke-width:0.264583"
         d="m 545.43347,-29.898102 c -1.09141,0.0638 -2.28203,0.0638 -2.64583,-10e-6 -0.36381,-0.0638 -1.40898,-0.30713 -2.32261,-0.54076 -0.96413,-0.24655 -1.76331,-0.61568 -1.90462,-0.87972 -0.13391,-0.25021 -0.36058,-3.56982 -0.50371,-7.37692 -0.17061,-4.53775 -0.17061,-9.30623 0,-13.84398 0.14313,-3.8071 0.36823,-7.12377 0.50021,-7.37038 0.13198,-0.24662 0.98906,-0.66452 1.90462,-0.92869 1.03097,-0.29746 2.57111,-0.48537 4.0459,-0.49364 1.30969,-0.007 3.03609,0.14447 3.83646,0.33737 0.80036,0.1929 2.34817,0.78276 3.43958,1.31079 1.45169,0.70235 2.52014,1.49405 3.9802,2.94925 1.20514,1.20111 2.33454,2.63759 2.85077,3.62589 0.47022,0.9002 1.09014,2.55635 1.37761,3.68034 0.28747,1.12399 0.52267,2.83897 0.52267,3.81106 0,0.97209 -0.2352,2.68707 -0.52267,3.81106 -0.28747,1.12399 -0.91136,2.78014 -1.38643,3.68034 -0.50976,0.96594 -1.6781,2.45076 -2.85077,3.62298 -1.29772,1.29724 -2.58429,2.28634 -3.7088,2.8513 -0.94698,0.47577 -2.37573,1.0389 -3.175,1.25139 -0.79926,0.21249 -2.34617,0.43854 -3.43758,0.50233 z"
         id="path3834-9" /><path
         style="fill:#4986d7;stroke-width:0.264583"
         d="m 546.4918,17.446441 c -2.11005,0.07061 -5.08661,0.02633 -6.61458,-0.09844 -1.52797,-0.124754 -3.96875,-0.423781 -5.42396,-0.664501 -1.45521,-0.240723 -3.95552,-0.777735 -5.55625,-1.193364 -1.60073,-0.415628 -3.74385,-1.042233 -4.7625,-1.392451 -1.85208,-0.636765 -1.85208,-0.636765 -1.82065,-2.990041 0.0231,-1.733305 0.17238,-2.672435 0.56647,-3.564705 0.29428,-0.66629 1.28024,-2.09503 2.19104,-3.175 0.91079,-1.07996 2.05397,-2.81703 2.54039,-3.86016 0.49327,-1.05781 0.99997,-2.695981 1.14573,-3.704171 0.14373,-0.99417 0.26162,-3.1768 0.26198,-4.85029 2.6e-4,-1.67349 -0.17511,-3.87614 -0.38993,-4.89479 -0.21482,-1.01865 -0.76843,-2.62599 -1.23024,-3.57187 -0.56137,-1.14979 -1.46079,-2.33364 -2.71369,-3.57188 -1.0307,-1.01865 -2.4098,-2.11127 -3.06464,-2.42806 -0.65484,-0.31679 -2.83457,-1.36835 -4.84384,-2.3368 -2.09257,-1.00859 -5.42694,-2.95069 -7.80521,-4.54614 -2.28359,-1.53193 -4.69627,-3.06122 -5.36151,-3.39841 -0.66523,-0.33719 -1.97492,-0.81509 -2.91041,-1.06201 -1.04048,-0.27463 -2.67686,-0.44666 -4.21444,-0.44306 -1.80123,0.004 -3.00092,0.16143 -4.23334,0.55474 -0.94588,0.30188 -2.47783,0.99849 -3.40433,1.54805 -0.9265,0.54956 -2.38151,1.74394 -3.23336,2.65419 -1.54882,1.65501 -1.54882,1.65501 -1.94937,0.26459 -0.22031,-0.76473 -0.63033,-2.52152 -0.91116,-3.90396 -0.28083,-1.38245 -0.63455,-3.64464 -0.78604,-5.02709 -0.15149,-1.38244 -0.35293,-3.61487 -0.44764,-4.96093 -0.17219,-2.44739 -0.17219,-2.44739 4.03364,-2.44739 2.92301,0 4.68025,-0.12357 5.76123,-0.40514 0.85546,-0.22282 2.27022,-0.78612 3.14391,-1.2518 0.87368,-0.46566 2.19307,-1.40172 2.93196,-2.08012 0.7389,-0.6784 1.75385,-1.91573 2.25544,-2.74961 0.5016,-0.83389 1.13003,-2.16201 1.39651,-2.95137 0.26649,-0.78936 0.59757,-2.62164 0.73574,-4.0717 0.15402,-1.61653 0.47216,-3.15011 0.82235,-3.96415 0.39163,-0.91038 2.93327,-4.09025 8.08641,-10.117 4.73607,-5.53897 7.78037,-9.32746 8.23217,-10.24452 0.63469,-1.28831 0.71692,-1.75867 0.71692,-4.10105 0,-2.3121 -0.0888,-2.83523 -0.7039,-4.14738 -0.38715,-0.82585 -1.19057,-2.02952 -1.78539,-2.67482 -0.59481,-0.6453 -1.76634,-1.53714 -2.60339,-1.98186 -0.83705,-0.44472 -1.96839,-0.87816 -2.51409,-0.9632 -0.54571,-0.085 -1.43246,-0.22396 -1.97057,-0.30871 -0.97838,-0.1541 -0.97838,-0.1541 0.99219,-1.42147 1.08381,-0.69706 3.35916,-2.001978 5.05634,-2.899838 1.69717,-0.89785 3.22713,-1.80278 3.39989,-2.01095 0.10865,-0.56609 0.0873,-1.36451 -0.0391,-2.00002 l 7.25207,-2.6317 c 0.29624,0.69277 0.49367,1.00131 1.08773,1.4598 0.7242,0.30078 1.21886,0.26376 3.81342,-0.27354 1.64415,-0.34048 4.14447,-0.76618 5.55625,-0.94603 1.41179,-0.17984 4.88861,-0.31952 7.72626,-0.3104 3.16285,0.0102 6.21693,0.17261 7.89228,0.41984 1.5031,0.22183 2.78708,0.45749 2.85331,0.5237 0.0662,0.0662 -0.35507,0.93986 -0.93621,1.94141 -1.05661,1.821 -1.05661,1.821 -4.44081,1.821 -3.19074,0 -3.46411,0.0421 -4.78229,0.73664 -0.76896,0.40515 -1.86534,1.20388 -2.43642,1.77496 -0.57107,0.57107 -1.27001,1.492478 -1.5532,2.047568 -0.28318,0.55508 -0.88568,2.28212 -1.33887,3.83786 -0.4532,1.55574 -1.29181,4.76769 -1.86359,7.13767 -0.57178,2.36997 -1.39993,6.21405 -1.84035,8.54238 -0.44042,2.32833 -1.03835,5.90021 -1.32874,7.9375 -0.29039,2.0373 -0.70645,5.43057 -0.92458,7.54062 -0.21813,2.11006 -0.535,6.33677 -0.70416,9.39271 -0.18579,3.35653 -0.24452,8.54158 -0.14834,13.09688 0.0876,4.14734 0.34159,9.56468 0.56449,12.03854 0.22291,2.47385 0.5879,5.92666 0.8111,7.67291 0.2232,1.74625 0.76134,5.2586 1.19585,7.80521 0.43452,2.54662 1.20379,6.48429 1.70948,8.75039 0.50569,2.2661 1.40402,5.897511 1.9963,8.069791 0.59228,2.17229 1.3544,4.56254 1.6936,5.31168 0.33921,0.74913 1.10107,1.84639 1.69304,2.438362 0.59196,0.591963 1.70543,1.407782 2.47439,1.812935 1.30759,0.688954 1.59507,0.734783 4.44081,0.707959 2.1812,-0.02056 4.01658,-0.230163 6.48229,-0.740291 1.89177,-0.391384 5.09514,-1.261443 7.1186,-1.933461 2.02347,-0.672024 5.29768,-2.024544 7.27605,-3.005614 1.97836,-0.98106 4.84717,-2.61944 6.37514,-3.64085 1.52797,-1.02141 3.92165,-2.8118 5.31929,-3.97866 1.39764,-1.166851 3.58432,-3.229411 4.85929,-4.583461 1.27498,-1.35405 3.1318,-3.54416 4.12627,-4.86691 0.99448,-1.32274 2.43055,-3.40634 3.19128,-4.6302 0.76072,-1.22387 2.12177,-3.77302 3.02454,-5.66479 0.90277,-1.89177 2.00721,-4.51422 2.4543,-5.82766 0.44709,-1.31345 1.11721,-3.59189 1.48915,-5.06321 0.37194,-1.47131 0.87688,-3.90902 1.12209,-5.41713 0.31995,-1.9678 0.44913,-4.42286 0.45749,-8.69513 0.009,-4.34622 -0.11191,-6.77443 -0.44614,-8.99583 -0.45779,-3.04271 -0.45779,-3.04271 0.69853,-7.01146 1.15631,-3.96875 1.15631,-3.96875 1.74816,-1.98557 0.32551,1.09075 0.86674,3.29341 1.20273,4.8948 0.33599,1.60138 0.73531,4.0427 0.8874,5.42515 0.15208,1.38244 0.35004,3.70416 0.43991,5.15937 0.0899,1.45521 0.0339,4.3284 -0.12432,6.38488 -0.15825,2.05647 -0.51427,5.03303 -0.79116,6.61458 -0.27689,1.58155 -0.75156,3.84189 -1.05481,5.02299 -0.30326,1.1811 -0.98114,3.38376 -1.5064,4.89479 -0.52527,1.51104 -1.5125,3.9975 -2.19386,5.52547 -0.68136,1.52797 -2.08596,4.20687 -3.12134,5.95312 -1.03537,1.74625 -2.81133,4.42516 -3.94657,5.95313 -1.13524,1.52797 -3.73748,4.45154 -5.78276,6.496821 -2.04528,2.04528 -4.96885,4.64752 -6.49682,5.78276 -1.52797,1.13524 -4.20688,2.9112 -5.95313,3.94657 -1.74625,1.03538 -4.42716,2.44149 -5.95758,3.124683 -1.53042,0.683194 -4.16786,1.719834 -5.86098,2.303645 -1.69311,0.583811 -4.45274,1.369719 -6.1325,1.746457 -1.67976,0.37674 -4.28107,0.853651 -5.78069,1.059804 -1.49962,0.206153 -4.45298,0.432596 -6.56304,0.503208 z"
         id="path3832-2"
         sodipodi:nodetypes="ssssssssssssssssssscsssssssssssssssssssssssssccccsssssssssssssssssssssssssssssssssssssscssssssssssssssssssssss" /><path
         style="fill:#336389;stroke-width:0.264583"
         d="m 550.32826,8.195509 c -0.813,0.0854 -1.73085,-0.005 -2.38125,-0.23535 -0.58208,-0.20584 -1.36905,-0.71961 -1.74881,-1.14171 -0.37977,-0.4221 -0.93772,-1.58795 -1.2399,-2.59077 -0.30217,-1.00282 -0.92227,-3.25206 -1.378,-4.99831 -0.45573,-1.746251 -0.8822,-3.364861 -0.94771,-3.596921 -0.10289,-0.36449 0.34074,-0.44434 3.25911,-0.58662 1.85803,-0.0906 4.39186,-0.3429 5.63074,-0.56071 1.23889,-0.2178 3.32248,-0.7059 4.63021,-1.08467 1.30773,-0.37876 3.33019,-1.10004 4.49436,-1.60283 1.16417,-0.50279 3.06917,-1.46551 4.23333,-2.13938 1.16417,-0.67386 3.00964,-1.88044 4.10105,-2.68128 1.0914,-0.80085 3.06715,-2.53885 4.39054,-3.86225 1.3234,-1.32339 3.06705,-3.30564 3.87479,-4.40499 0.80774,-1.09936 2.07851,-3.06249 2.82393,-4.36251 0.74542,-1.30003 1.82862,-3.57425 2.4071,-5.05383 0.57849,-1.47957 1.3486,-3.91592 1.71137,-5.41409 0.36276,-1.49818 0.8023,-4.24785 0.97674,-6.11037 0.2465,-2.63193 0.2465,-4.14091 0,-6.77284 -0.17444,-1.86252 -0.61398,-4.61219 -0.97674,-6.11037 -0.36277,-1.49817 -1.13288,-3.93452 -1.71137,-5.41409 -0.57848,-1.47958 -1.66168,-3.7538 -2.4071,-5.05383 -0.74542,-1.30002 -1.99394,-3.22723 -2.77448,-4.28268 -0.78055,-1.05546 -2.22335,-2.77147 -3.20622,-3.81337 -0.98288,-1.0419 -2.74275,-2.66377 -3.91083,-3.60415 -1.16807,-0.94038 -3.21773,-2.36652 -4.55478,-3.16921 -1.33706,-0.80269 -3.48615,-1.91433 -4.77577,-2.47031 -1.28961,-0.55599 -3.35081,-1.31573 -4.58045,-1.68832 -1.22963,-0.37259 -3.30725,-0.86384 -4.61694,-1.09166 -1.30969,-0.22782 -3.90145,-0.48833 -5.75948,-0.57892 -2.91837,-0.14228 -3.362,-0.22213 -3.25911,-0.58662 0.0655,-0.23206 0.49198,-1.85067 0.94771,-3.59692 0.45573,-1.74625 1.07878,-4.00844 1.38456,-5.02709 0.36896,-1.22908 0.8347,-2.13215 1.3846,-2.6847 0.45575,-0.45795 1.28511,-0.95867 1.84303,-1.11272 0.69912,-0.19303 1.68207,-0.1978 3.16259,-0.0154 1.1815,0.14561 3.47963,0.56121 5.10694,0.92356 1.62732,0.36235 4.0681,1.02649 5.42396,1.47586 1.35586,0.44937 3.53676,1.29537 4.84645,1.87999 1.30968,0.58463 3.54454,1.72353 4.96635,2.53089 1.42181,0.80736 3.86259,2.42452 5.42396,3.59367 1.56137,1.16916 4.15602,3.43865 5.76589,5.04332 1.60987,1.60466 3.88464,4.20209 5.05505,5.77205 1.17041,1.56997 2.88519,4.18864 3.81062,5.81927 0.92544,1.63063 2.3078,4.51329 3.07193,6.40593 0.76413,1.89263 1.74184,4.81443 2.1727,6.49288 0.43085,1.67845 0.98785,4.35736 1.23778,5.95312 0.30858,1.97021 0.45442,4.47236 0.45442,7.79619 0,3.32383 -0.14584,5.82598 -0.45442,7.79618 -0.24993,1.59577 -0.80693,4.27468 -1.23778,5.95313 -0.43086,1.67845 -1.423,4.6359 -2.20477,6.5721 -0.78177,1.9362 -2.16421,4.81813 -3.07209,6.40429 -0.90788,1.58616 -2.50688,4.02661 -3.55333,5.42324 -1.04645,1.39663 -2.8182,3.5397 -3.93722,4.7624 -1.11902,1.22269 -3.19238,3.19209 -4.60747,4.37645 -1.41508,1.18435 -3.71287,2.914531 -5.1062,3.844831 -1.39332,0.93031 -3.95317,2.39173 -5.68854,3.2476 -1.73537,0.85587 -3.98865,1.86487 -5.0073,2.24224 -1.01865,0.37736 -2.89656,0.98531 -4.17314,1.35101 -1.27659,0.3657 -3.59831,0.89795 -5.15938,1.18277 -1.56107,0.28482 -3.43362,0.58037 -4.16123,0.65677 z"
         id="path3830-6" /><path
         id="path3822-2"
         style="fill:#373737;fill-opacity:1;stroke-width:0.333964"
         d="m 544.55798,-113.03496 c -5.53301,0.0129 -11.04344,0.70612 -16.40727,2.06396 -0.34411,0.13424 -0.59145,0.26745 -0.74001,0.401 -1.06645,1.27155 -1.10114,2.79132 0.38757,3.43494 0.7242,0.30078 1.229,0.26496 3.82354,-0.27234 1.64415,-0.34048 4.14449,-0.76634 5.55625,-0.94619 1.41179,-0.17984 4.8885,-0.3197 7.72615,-0.31058 3.16283,0.0102 6.21719,0.1729 7.89254,0.42013 1.5031,0.22183 2.78682,0.45727 2.85305,0.52348 0.0662,0.0662 -0.35523,0.93994 -0.93637,1.94149 -1.05661,1.821 -1.05636,1.82107 -4.44056,1.82107 -3.19072,0 -3.46396,0.0418 -4.78214,0.73639 -0.76894,0.40515 -1.86546,1.20401 -2.43654,1.77509 -0.57107,0.57107 -1.2702,1.492331 -1.55339,2.047419 -0.28318,0.55508 -0.88575,2.282271 -1.33894,3.838009 -0.4532,1.555736 -1.29167,4.767573 -1.86345,7.137549 -0.57178,2.369964 -1.39978,6.214305 -1.8402,8.542631 -0.44042,2.328324 -1.03821,5.900214 -1.3286,7.9375 -0.29039,2.037296 -0.70688,5.430579 -0.92501,7.540625 -0.21813,2.110056 -0.53467,6.336774 -0.70383,9.392708 -0.18579,3.356524 -0.24449,8.541585 -0.14831,13.096875 0.0876,4.147332 0.3414,9.564686 0.5643,12.038542 0.22291,2.473844 0.58812,5.92667 0.81132,7.672916 0.2232,1.746248 0.76129,5.258603 1.1958,7.805209 0.43452,2.546614 1.20376,6.4842746 1.70945,8.75037 0.50569,2.2660954 1.40398,5.897516 1.99626,8.0697917 0.59228,2.1722856 1.35424,4.5621651 1.69344,5.3113037 0.33921,0.7491284 1.10095,1.8466402 1.69292,2.4386106 0.59196,0.591963 1.70584,1.407658 2.47478,1.812809 1.30759,0.688954 1.59482,0.734792 4.44056,0.707968 2.1812,-0.02056 4.01658,-0.229879 6.48229,-0.740007 1.89177,-0.391384 5.09549,-1.261716 7.11895,-1.933732 2.02347,-0.6720226 5.29767,-2.0244333 7.27604,-3.0055013 1.97836,-0.981058 4.84685,-2.6191967 6.3748,-3.6406047 1.52797,-1.0214078 3.92194,-2.81222758 5.31958,-3.97908526 1.39762,-1.16684864 3.58416,-3.22913554 4.85913,-4.58318274 1.27498,-1.3540474 3.13191,-3.5441396 4.12636,-4.866886 0.99448,-1.322738 2.43029,-3.406351 3.19102,-4.630209 0.76072,-1.223868 2.12186,-3.773004 3.02463,-5.66477 0.90275,-1.891766 2.00702,-4.514114 2.45411,-5.827552 0.44709,-1.313446 1.11737,-3.59194 1.48931,-5.063256 0.37194,-1.471308 0.87721,-3.909133 1.12242,-5.417241 0.31995,-1.967796 0.44897,-4.422816 0.45733,-8.695076 0.009,-4.346212 -0.11225,-6.774438 -0.44648,-8.995834 -0.45779,-3.042704 -0.45766,-3.042716 0.69866,-7.011458 1.15631,-3.968742 1.15637,-3.969101 1.74822,-1.985925 0.32551,1.090748 0.86703,3.293405 1.20302,4.894791 0.33599,1.601378 0.7352,4.043061 0.88729,5.425509 0.15208,1.382438 0.3499,3.704169 0.43977,5.159375 0.0899,1.455208 0.0337,4.328147 -0.12455,6.384623 -0.15823,2.056466 -0.51427,5.033036 -0.79116,6.614584 -0.27689,1.581546 -0.75147,3.841851 -1.05472,5.022949 -0.30326,1.181098 -0.98111,3.383765 -1.50637,4.894791 -0.52525,1.511038 -1.5123,3.997795 -2.19366,5.525761 -0.68136,1.527968 -2.08588,4.206879 -3.12126,5.953125 -1.03537,1.746248 -2.81129,4.4251584 -3.94653,5.9531254 -1.13522,1.527967 -3.73784,4.4514841 -5.7831,6.4967611 -2.04528,2.0452758 -4.9688,4.6473551 -6.49677,5.7825927 -1.52795,1.1352378 -4.20687,2.9111612 -5.95312,3.9465292 -1.74625,1.0353778 -4.42684,2.4416826 -5.95726,3.1248736 -1.53042,0.683194 -4.16802,1.719925 -5.86114,2.303736 -1.69311,0.583809 -4.45268,1.36941 -6.13244,1.746146 -1.67976,0.37674 -4.28143,0.853731 -5.78105,1.059884 -1.4996,0.206153 -4.45284,0.432716 -6.5629,0.503328 -2.11005,0.07061 -5.08662,0.02607 -6.61459,-0.0987 -1.52795,-0.124754 -3.96876,-0.423322 -5.42395,-0.664042 -1.45521,-0.240723 -3.95554,-0.778098 -5.55625,-1.193725 -1.60073,-0.415628 -3.74387,-1.041946 -4.7625,-1.392164 -1.85208,-0.636763 -1.85198,-0.636726 -1.82057,-2.989998 0.0231,-1.7333012 0.17229,-2.6728887 0.56638,-3.5651569 0.29428,-0.6662888 1.28028,-2.0950322 2.19108,-3.175 0.91079,-1.079958 2.05399,-2.8165848 2.54041,-3.85971277 0.49327,-1.05780788 0.99991,-2.69597863 1.14567,-3.70416663 0.14373,-0.994168 0.26164,-3.1768632 0.262,-4.85035 2.6e-4,-1.6734866 -0.17482,-3.8761437 -0.38964,-4.8947917 -0.21482,-1.018648 -0.76861,-2.625997 -1.23042,-3.571875 -0.56137,-1.149788 -1.46063,-2.333637 -2.71353,-3.571875 -1.0307,-1.018648 -2.41009,-2.111487 -3.06493,-2.428275 -0.65484,-0.31679 -2.83436,-1.368361 -4.84363,-2.336809 -2.09257,-1.008588 -5.42694,-2.950528 -7.80521,-4.545976 -2.28357,-1.531926 -4.69619,-3.061052 -5.36143,-3.398242 -0.66523,-0.337188 -1.97492,-0.815547 -2.91041,-1.062467 -1.04048,-0.27463 -2.67715,-0.446467 -4.21473,-0.442867 -1.80123,0.004 -3.00092,0.161695 -4.23334,0.555005 -0.94588,0.301878 -2.47794,0.998149 -3.40444,1.547709 -0.9265,0.549558 -2.38154,1.743853 -3.23339,2.654101 -1.54882,1.655008 -1.54869,1.655 -1.94924,0.264584 -0.22031,-0.764728 -0.63022,-2.5212 -0.91105,-3.903638 -0.28083,-1.382448 -0.63451,-3.644637 -0.786,-5.027083 -0.15149,-1.382438 -0.35281,-3.61488 -0.44752,-4.960938 -0.17219,-2.447384 -0.17247,-2.447396 4.03334,-2.447396 2.92301,0 4.68043,-0.123573 5.76141,-0.405143 0.85546,-0.22282 2.27032,-0.78644 3.14399,-1.25212 0.87368,-0.465658 2.19272,-1.401578 2.93161,-2.079976 0.7389,-0.6784 1.7541,-1.915825 2.25567,-2.749703 0.5016,-0.833888 1.12982,-2.161883 1.3963,-2.951241 0.26649,-0.789358 0.5977,-2.62153 0.73587,-4.071586 0.15402,-1.616528 0.47199,-3.150061 0.82218,-3.964099 0.39163,-0.91038 2.93372,-4.090474 8.08684,-10.117212 4.73607,-5.53896 7.78026,-9.327278 8.23206,-10.244336 0.63469,-1.288308 0.71675,-1.758666 0.71675,-4.101042 0,-2.312096 -0.0887,-2.835404 -0.70383,-4.14755 -0.38715,-0.82585 -1.19062,-2.029473 -1.78542,-2.674773 -0.59481,-0.645298 -1.76641,-1.537071 -2.60346,-1.981791 -0.83705,-0.444718 -1.96836,-0.878208 -2.51406,-0.963248 -0.54571,-0.085 -1.43231,-0.223759 -1.97042,-0.308509 -0.97838,-0.1541 -0.97837,-0.154252 0.99218,-1.421618 1.08381,-0.69706 3.35936,-2.002224 5.05654,-2.900084 1.69717,-0.89785 3.22703,-1.80256 3.39979,-2.01073 0.71431,-1.60213 -0.0644,-3.24302 -1.79058,-3.27887 -0.23617,0 -0.75724,0.16897 -1.44901,0.45527 -0.10468,0.0454 -0.20924,0.091 -0.31368,0.13694 -0.25181,0.10886 -0.51547,0.22624 -0.80202,0.3607 -1.2442,0.60948 -2.46933,1.25712 -3.67367,1.942 -0.54381,0.31255 -1.08861,0.63226 -1.64745,0.96842 -0.99954,0.59254 -1.98362,1.2108 -2.95124,1.85415 -0.28349,0.18999 -0.61716,0.42843 -0.93793,0.65422 -0.96249,0.67219 -1.90728,1.36937 -2.83341,2.090835 -0.30883,0.23769 -0.62067,0.476447 -0.91106,0.706417 -1.16136,0.934355 -2.29145,1.906922 -3.38842,2.916101 -0.0978,0.0899 -0.19426,0.178644 -0.29198,0.269234 -4.80389,4.483995 -8.92724,9.645459 -12.23956,15.321029 -0.20542,0.36236 -0.40905,0.736294 -0.61391,1.108459 -0.51631,0.92376 -1.01082,1.859535 -1.48312,2.806547 -0.2312,0.46157 -0.46771,0.943666 -0.70486,1.439706 -4.21912,8.971314 -6.41027,18.761871 -6.4177,28.675769 -1.5e-4,37.2792335 30.22053,67.50014 67.49976,67.500273 37.27943,1.49e-4 67.50042,-30.2208403 67.50027,-67.500273 -1.4e-4,-37.27923 -30.22104,-67.499907 -67.50027,-67.499757 z m 16.48426,6.42441 c 0.068,0.008 0.14135,0.0227 0.22273,0.0419 0.3878,0.0915 1.935,0.57279 3.43855,1.0697 1.50355,0.49691 3.94252,1.43945 5.41982,2.09445 1.4773,0.655 3.64045,1.71156 4.80694,2.34766 1.16649,0.6361 3.28369,1.933939 4.70514,2.884578 1.42145,0.950649 3.50505,2.477268 4.63021,3.392558 1.12516,0.915289 3.10311,2.677701 4.39508,3.91604 1.29197,1.238348 3.2951,3.382635 4.45141,4.765083 1.15631,1.382449 2.97338,3.82323 4.03799,5.423959 1.06461,1.600728 2.54084,4.045188 3.28042,5.432226 1.34468,2.521888 1.34485,2.521895 0.52814,5.688542 -0.44919,1.741658 -0.89593,3.253335 -0.99271,3.359485 -0.0968,0.10615 -0.73564,-1.144007 -1.41955,-2.778125 -0.68391,-1.634109 -1.99012,-4.252568 -2.90266,-5.818766 -0.91253,-1.566189 -2.40006,-3.891938 -3.30523,-5.168677 -0.90518,-1.276749 -2.69953,-3.509606 -3.98787,-4.961454 -1.28833,-1.451839 -3.44113,-3.588746 -4.78369,-4.749065 -1.34254,-1.160308 -3.47674,-2.850997 -4.74286,-3.756876 -1.26612,-0.905879 -3.56553,-2.371697 -5.10976,-3.257166 -1.54425,-0.885469 -4.22316,-2.210494 -5.95313,-2.944523 -1.72997,-0.734039 -4.48461,-1.719869 -6.12107,-2.191079 -1.63645,-0.47122 -3.03848,-0.92026 -3.11609,-0.99787 -0.0776,-0.0776 0.34856,-0.99045 0.94723,-2.02882 0.87936,-1.52524 1.09477,-1.81747 1.57096,-1.76372 z m -11.56157,7.173209 c 0.51819,-0.0025 1.13405,0.04161 1.87431,0.132808 1.1815,0.14561 3.47987,0.561625 5.10718,0.923975 1.62732,0.362347 4.0681,1.026509 5.42396,1.475879 1.35586,0.449367 3.53652,1.295371 4.84621,1.879988 1.30968,0.58463 3.54484,1.723238 4.96662,2.530595 1.42181,0.807357 3.86259,2.424432 5.42396,3.593579 1.56137,1.169157 4.15567,3.438956 5.76554,5.04362 1.60987,1.604654 3.88458,4.201784 5.05499,5.771741 1.17041,1.569964 2.88519,4.188656 3.81062,5.819283 0.92544,1.630624 2.30806,4.513693 3.07216,6.406327 0.76413,1.892624 1.74162,4.814183 2.17248,6.492627 0.43085,1.678444 0.98824,4.357371 1.23817,5.953125 0.30858,1.970204 0.45424,4.472605 0.45424,7.796423 0,3.323821 -0.14566,5.825713 -0.45424,7.795907 -0.24993,1.595764 -0.80732,4.274681 -1.23817,5.953125 -0.43086,1.678444 -1.42277,4.636015 -2.20451,6.572209 -0.78177,1.936194 -2.16429,4.818103 -3.07217,6.40426 -0.90788,1.586154 -2.50682,4.026817 -3.55327,5.423441 -1.04645,1.396627 -2.81821,3.5392873 -3.93723,4.7619837 -1.11902,1.2226864 -3.19238,3.1921206 -4.60747,4.376477 -1.41508,1.1843467 -3.71282,2.9149461 -5.10615,3.84524337 -1.39329,0.93030718 -3.95317,2.39147943 -5.68854,3.24734703 -1.73537,0.8558673 -3.98882,1.8648713 -5.00744,2.2422404 -1.01865,0.3773588 -2.8963,0.9851231 -4.17288,1.3508219 -1.27656,0.3656988 -3.5983,0.8980544 -5.15937,1.1828735 -1.56107,0.2848194 -3.43392,0.5804078 -4.1615,0.6568075 -0.813,0.0854 -1.73085,-0.00478 -2.38125,-0.2351278 -0.58208,-0.2058394 -1.369,-0.7194336 -1.74873,-1.1415324 -0.37977,-0.4220985 -0.93754,-1.5882393 -1.23972,-2.5910563 -0.30217,-1.002817 -0.92248,-3.25189973 -1.37821,-4.99814451 -0.45573,-1.74624569 -0.88224,-3.36513709 -0.94775,-3.59719649 -0.10289,-0.3644888 0.34089,-0.4442478 3.25923,-0.5865275 1.85803,-0.0906 4.39179,-0.3428799 5.63067,-0.5606893 1.23889,-0.2177991 3.32248,-0.7059192 4.63021,-1.0846883 1.30773,-0.3787588 3.33013,-1.1002144 4.4943,-1.6030029 1.16414,-0.5027885 3.06917,-1.4655372 4.23333,-2.1394039 1.16417,-0.67386 3.00963,-1.880137 4.10104,-2.680974 1.0914,-0.800847 3.06704,-2.538902 4.39043,-3.862296 1.3234,-1.323387 3.06748,-3.305552 3.87522,-4.404899 0.80774,-1.099357 2.07818,-3.062508 2.8236,-4.362525 0.74542,-1.300024 1.82863,-3.574378 2.40708,-5.053955 0.57849,-1.479564 1.34876,-3.915973 1.71153,-5.41414 0.36276,-1.498174 0.80224,-4.247707 0.97668,-6.110221 0.2465,-2.631921 0.2465,-4.140792 0,-6.772713 -0.17444,-1.862514 -0.61392,-4.612564 -0.97668,-6.110738 -0.36277,-1.498167 -1.13304,-3.934576 -1.71153,-5.41414 -0.57845,-1.479577 -1.66166,-3.753414 -2.40708,-5.053438 -0.74542,-1.300017 -1.99397,-3.227496 -2.77451,-4.282943 -0.78055,-1.055457 -2.22314,-2.771307 -3.20601,-3.813204 -0.98288,-1.041897 -2.74279,-2.664054 -3.91087,-3.604431 -1.16807,-0.940377 -3.21771,-2.366112 -4.55476,-3.168799 -1.33706,-0.802687 -3.48632,-1.914673 -4.77594,-2.47065 -1.28958,-0.55599 -3.35044,-1.315682 -4.58008,-1.688269 -1.22963,-0.37259 -3.3076,-0.863587 -4.61729,-1.091407 -1.30969,-0.227817 -3.90131,-0.488705 -5.75934,-0.579292 -2.91834,-0.14228 -3.36212,-0.222038 -3.25923,-0.586528 0.0655,-0.23206 0.49202,-1.850433 0.94775,-3.59668 0.45573,-1.746244 1.07863,-4.008436 1.38441,-5.027083 0.36896,-1.229077 0.83503,-2.132041 1.38493,-2.684591 0.45575,-0.457947 1.28486,-0.95906 1.84278,-1.11311 0.34956,-0.09651 0.7701,-0.14579 1.28829,-0.148311 z m -42.67078,6.459554 c 4.04484,0 4.20877,0.0214 5.57744,0.736389 1.14739,0.599399 1.5521,1.006194 2.17196,2.182812 0.64116,1.217069 0.74064,1.661525 0.62683,2.805514 -0.0744,0.747609 -0.31729,1.700107 -0.5395,2.116667 -0.22221,0.416559 -3.58128,4.448514 -7.46466,8.959659 -3.88336,4.511136 -7.40297,8.73206 -7.82123,9.37979 -0.41826,0.647739 -1.00244,1.825275 -1.29862,2.616894 -0.29618,0.791609 -0.658,2.702424 -0.80409,4.246253 -0.1893,2.000378 -0.45646,3.225223 -0.92914,4.262272 -0.3648,0.800369 -1.20996,2.011873 -1.87792,2.692342 -0.68543,0.698269 -1.91838,1.559037 -2.83084,1.976107 -1.50927,0.689859 -1.89585,0.745839 -5.81773,0.841809 -4.20106,0.1028 -4.2014,0.102874 -4.01939,-1.711524 0.10011,-0.997919 0.36095,-2.885921 0.57929,-4.195609 0.21833,-1.309689 0.68436,-3.521634 1.03559,-4.915463 0.35123,-1.393818 1.05761,-3.738676 1.56993,-5.210534 0.51232,-1.471859 1.4182,-3.784286 2.01332,-5.138705 0.59512,-1.354418 1.67136,-3.509486 2.39158,-4.788855 0.72021,-1.279378 1.8245,-3.124852 2.4536,-4.101041 0.62911,-0.976199 2.01574,-2.899116 3.08147,-4.273124 1.06571,-1.373999 3.24177,-3.844556 4.83588,-5.490105 2.89838,-2.991907 2.89869,-2.991548 7.06623,-2.991548 z m 36.50992,11.39362 c 0.60528,-0.0017 1.40616,0.02599 2.47375,0.06253 2.42494,0.083 5.12757,0.33482 6.2544,0.58291 1.09141,0.24029 2.87735,0.728569 3.96875,1.085205 1.09141,0.35664 3.29734,1.302365 4.90202,2.101681 1.60473,0.799316 3.93362,2.215518 5.17488,3.147094 1.24127,0.93158 3.33231,2.819124 4.64726,4.194576 1.31495,1.375456 3.01319,3.431034 3.77342,4.56768 0.76024,1.136646 1.90388,3.145708 2.54144,4.464844 0.63756,1.319146 1.45443,3.291789 1.8154,4.383195 0.36098,1.091396 0.87299,2.996411 1.13791,4.233333 0.36745,1.715606 0.48163,3.409796 0.48163,7.14375 0,3.733958 -0.11418,5.428148 -0.48163,7.14375 -0.26492,1.236926 -0.77693,3.141938 -1.13791,4.233334 -0.36097,1.091406 -1.17846,3.055939 -1.81643,4.365625 -0.63798,1.309672 -1.7884,3.333764 -2.55695,4.497916 -0.78323,1.186406 -2.73892,3.457758 -4.44934,5.16816 -1.71041,1.710416 -3.98175,3.665598 -5.16816,4.448824 -1.16416,0.76855 -3.18824,1.919491 -4.49792,2.557467 -1.30969,0.637966 -3.27421,1.45429 -4.36562,1.81436 -1.0914,0.360066 -2.87734,0.851633 -3.96875,1.091923 -1.1273,0.248186 -3.83015,0.4998302 -6.25802,0.5829098 -4.2737,0.1462392 -4.27389,0.1462962 -4.56509,-1.2764078 -0.16016,-0.782496 -0.58064,-3.149069 -0.93483,-5.259111 -0.35419,-2.110038 -0.7919,-5.115036 -0.97255,-6.677628 -0.18065,-1.562606 -0.27735,-2.890098 -0.21498,-2.950208 0.0624,-0.0601 1.00614,0.06677 2.09755,0.282154 1.32214,0.260956 2.82321,0.345638 4.49792,0.254248 1.38245,-0.0754 3.22792,-0.325656 4.10104,-0.556556 0.87313,-0.230886 2.54,-0.875974 3.70417,-1.433504 1.16413,-0.557516 2.85926,-1.575481 3.76669,-2.261877 0.90742,-0.68641 2.30144,-2.033433 3.098,-2.993099 0.79657,-0.959676 1.93174,-2.706971 2.52233,-3.882967 0.59059,-1.175986 1.32294,-3.139936 1.62781,-4.364592 0.46311,-1.860282 0.53433,-2.774502 0.43098,-5.55625 -0.0982,-2.642218 -0.26679,-3.766477 -0.81701,-5.446179 -0.38134,-1.164156 -1.2227,-3.018663 -1.86965,-4.120679 -0.64695,-1.102006 -1.92996,-2.782163 -2.85099,-3.734139 -0.92104,-0.951976 -2.5083,-2.265595 -3.52691,-2.919201 -1.01864,-0.6536 -2.665,-1.510884 -3.6587,-1.904794 -0.99366,-0.393916 -2.70079,-0.887497 -3.79356,-1.096573 -1.09278,-0.20909 -2.78021,-0.375354 -3.74964,-0.370004 -0.96946,0.005 -2.59613,0.171734 -3.61477,0.370004 -1.01865,0.198266 -1.90288,0.311504 -1.96526,0.251664 -0.0624,-0.0598 0.0331,-1.370582 0.21239,-2.912484 0.17923,-1.541902 0.61196,-4.54637 0.9617,-6.677112 0.34975,-2.130742 0.77315,-4.514398 0.94103,-5.296834 0.22892,-1.066969 0.28634,-1.333908 2.1022,-1.338936 z m 1.18752,20.251993 c 1.30969,-0.007 3.03609,0.144552 3.83646,0.337447 0.80036,0.1929 2.34822,0.782485 3.43958,1.310515 1.45169,0.702345 2.52006,1.493979 3.98012,2.949174 1.20514,1.201105 2.33476,2.63784 2.85099,3.626135 0.47022,0.900195 1.09023,2.556411 1.3777,3.680396 0.28747,1.12398 0.52244,2.839051 0.52244,3.811136 0,0.972085 -0.23497,2.687152 -0.52244,3.811137 -0.28747,1.123985 -0.91141,2.779684 -1.38648,3.679879 -0.50976,0.965935 -1.67832,2.45082 -2.85099,3.623035 -1.29772,1.29723 -2.58431,2.28655 -3.70882,2.851505 -0.94698,0.47577 -2.37573,1.039118 -3.175,1.251603 -0.79926,0.21249 -2.34611,0.438505 -3.43752,0.502295 -1.09136,0.0638 -2.28203,0.06381 -2.64583,0 -0.36381,-0.0638 -1.40871,-0.307422 -2.32234,-0.541052 -0.96413,-0.24655 -1.76348,-0.615493 -1.90479,-0.879533 -0.13391,-0.25021 -0.36072,-3.56973 -0.50385,-7.37681 -0.17061,-4.53773 -0.17061,-9.306387 0,-13.844117 0.14313,-3.80708 0.36825,-7.123999 0.50023,-7.370609 0.13198,-0.24662 0.98928,-0.664456 1.90479,-0.928626 1.03097,-0.297455 2.57096,-0.48524 4.04575,-0.49351 z m -47.77021,31.722095 c 2.56976,0 2.92733,0.0647 4.51084,0.815971 0.94588,0.448789 2.75795,1.558924 4.02662,2.467033 1.26868,0.908119 3.77212,2.505465 5.56297,3.549654 1.79086,1.044199 4.44365,2.411338 5.89525,3.038057 1.45161,0.62672 3.18483,1.535919 3.85144,2.020549 0.66662,0.484619 1.59401,1.457849 2.06086,2.162659 0.46685,0.704809 1.03252,1.914015 1.25729,2.687174 0.31597,1.086909 0.38779,2.408284 0.31729,5.826001 -0.0867,4.2019658 -0.12655,4.4872528 -0.80615,5.7810425 -0.39321,0.74854927 -1.36227,2.10403341 -2.15387,3.0117025 -0.79161,0.9076691 -1.75544,2.2750917 -2.14199,3.039091 -0.38655,0.7639992 -0.87314,2.0284084 -1.08107,2.8096476 -0.20794,0.7812392 -0.37965,1.9265999 -0.38138,2.5450644 -0.002,0.723055 -0.12116,1.123209 -0.33383,1.121378 -0.18189,-0.0016 -1.46182,-0.632676 -2.84427,-1.4024979 -1.38244,-0.7698222 -3.04932,-1.7379803 -3.70416,-2.1512899 -0.65485,-0.4132996 -2.55985,-1.7708113 -4.23334,-3.0168701 -1.67348,-1.2460587 -4.59569,-3.81899236 -6.49417,-5.7174805 -1.89849,-1.8984891 -4.50494,-4.8599321 -5.7919,-6.5815104 -1.28696,-1.7215983 -3.18627,-4.5825662 -4.22093,-6.3572342 -1.03465,-1.774669 -2.336,-4.248491 -2.8913,-5.497339 -1.00962,-2.270648 -1.00934,-2.27063 -0.19482,-3.994589 0.44799,-0.948169 1.29696,-2.27194 1.88671,-2.941939 0.70783,-0.804139 1.75911,-1.557543 3.09284,-2.216402 1.95067,-0.963629 2.11653,-0.997872 4.81107,-0.997872 z"
         sodipodi:nodetypes="scccsssssssssssssssssssssssssssssssssssssscssssssssssssssssssssssssssssssssssssssscssssssssssssssssssssssssscccccccccccsccccccsscsssssssssssssssssssssssssssssssssssssssssssssssssssscsssssssssssssssssssssssssssssssssssssssssssssssssssssssssssssssssssssssssssssssssssssssssssssssssscsssssscssssssssssssssssssscsssssssssssssssssssssssssssss" /></g></g></svg>
