<?xml version="1.0" encoding="UTF-8" standalone="no"?>
<!-- Created with Inkscape (http://www.inkscape.org/) -->

<svg
   width="135.00003mm"
   height="135.00003mm"
   viewBox="0 0 135.00003 135.00003"
   version="1.1"
   id="svg209"
   xml:space="preserve"
   inkscape:version="1.2.2 (732a01da63, 2022-12-09)"
   sodipodi:docname="geophysics-info.svg"
   xmlns:inkscape="http://www.inkscape.org/namespaces/inkscape"
   xmlns:sodipodi="http://sodipodi.sourceforge.net/DTD/sodipodi-0.dtd"
   xmlns="http://www.w3.org/2000/svg"
   xmlns:svg="http://www.w3.org/2000/svg"><sodipodi:namedview
     id="namedview211"
     pagecolor="#ffffff"
     bordercolor="#000000"
     borderopacity="0.25"
     inkscape:showpageshadow="2"
     inkscape:pageopacity="0.0"
     inkscape:pagecheckerboard="0"
     inkscape:deskcolor="#d1d1d1"
     inkscape:document-units="mm"
     showgrid="false"
     inkscape:zoom="1.4142136"
     inkscape:cx="331.63308"
     inkscape:cy="241.83052"
     inkscape:window-width="1920"
     inkscape:window-height="1120"
     inkscape:window-x="-11"
     inkscape:window-y="-11"
     inkscape:window-maximized="1"
     inkscape:current-layer="layer1" /><defs
     id="defs206" /><g
     inkscape:label="Layer 1"
     inkscape:groupmode="layer"
     id="layer1"
     transform="translate(-35.90314,-66.19599)"><path
       id="path3822-2"
       style="fill:#4986d7;fill-opacity:1;stroke-width:0.333964"
       d="m 103.4029,66.19599 c -5.53301,0.0129 -11.04344,0.70612 -16.40727,2.06396 -0.34411,0.13424 -0.59145,0.26745 -0.74001,0.401 -1.06645,1.27155 -1.10114,2.79132 0.38757,3.43494 0.7242,0.30078 1.229,0.26496 3.82354,-0.27234 1.64415,-0.34048 4.14449,-0.76634 5.55625,-0.94619 1.41179,-0.17984 4.8885,-0.3197 7.72615,-0.31058 3.16283,0.0102 6.21719,0.1729 7.89254,0.42013 1.5031,0.22183 2.78682,0.45727 2.85305,0.52348 0.0662,0.0662 -0.35523,0.93994 -0.93637,1.94149 -1.05661,1.821 -1.05636,1.82107 -4.44056,1.82107 -3.19072,0 -3.46396,0.0418 -4.78214,0.73639 -0.76894,0.40515 -1.86546,1.20401 -2.43654,1.77509 -0.57107,0.57107 -1.2702,1.492331 -1.55339,2.047419 -0.28318,0.55508 -0.88575,2.282271 -1.33894,3.838009 -0.4532,1.555736 -1.29167,4.767573 -1.86345,7.137549 -0.57178,2.369964 -1.39978,6.214305 -1.8402,8.542631 -0.44042,2.328322 -1.03821,5.900212 -1.3286,7.937502 -0.29039,2.03729 -0.70688,5.43058 -0.92501,7.54062 -0.21813,2.11006 -0.53467,6.33678 -0.70383,9.39271 -0.18579,3.35653 -0.24449,8.54159 -0.14831,13.09688 0.0876,4.14733 0.3414,9.56468 0.5643,12.03854 0.22291,2.47384 0.58812,5.92667 0.81132,7.67291 0.2232,1.74625 0.76129,5.25861 1.1958,7.80521 0.43452,2.54662 1.20376,6.48428 1.70945,8.75037 0.50569,2.2661 1.40398,5.89752 1.99626,8.06979 0.59228,2.17229 1.35424,4.56217 1.69344,5.31131 0.33921,0.74913 1.10095,1.84664 1.69292,2.43861 0.59196,0.59196 1.70584,1.40766 2.47478,1.81281 1.30759,0.68895 1.59482,0.73479 4.44056,0.70797 2.1812,-0.0206 4.01658,-0.22988 6.48229,-0.74001 1.89177,-0.39138 5.09549,-1.26172 7.11895,-1.93373 2.02347,-0.67203 5.29767,-2.02444 7.27604,-3.0055 1.97836,-0.98106 4.84685,-2.6192 6.3748,-3.64061 1.52797,-1.02141 3.92194,-2.81223 5.31958,-3.97908 1.39762,-1.16685 3.58416,-3.22914 4.85913,-4.58319 1.27498,-1.35404 3.13191,-3.54414 4.12636,-4.86688 0.99448,-1.32274 2.43029,-3.40635 3.19102,-4.63021 0.76072,-1.22387 2.12186,-3.77301 3.02463,-5.66477 0.90275,-1.89177 2.00702,-4.51412 2.45411,-5.82755 0.44709,-1.31345 1.11737,-3.59194 1.48931,-5.06326 0.37194,-1.47131 0.87721,-3.90913 1.12242,-5.41724 0.31995,-1.9678 0.44897,-4.42282 0.45733,-8.69508 0.009,-4.34621 -0.11225,-6.77443 -0.44648,-8.99583 -0.45779,-3.0427 -0.45766,-3.04272 0.69866,-7.01146 1.15631,-3.96874 1.15637,-3.9691 1.74822,-1.98592 0.32551,1.09074 0.86703,3.2934 1.20302,4.89479 0.33599,1.60138 0.7352,4.04306 0.88729,5.42551 0.15208,1.38243 0.3499,3.70417 0.43977,5.15937 0.0899,1.45521 0.0337,4.32815 -0.12455,6.38462 -0.15823,2.05647 -0.51427,5.03304 -0.79116,6.61459 -0.27689,1.58154 -0.75147,3.84185 -1.05472,5.02295 -0.30326,1.1811 -0.98111,3.38376 -1.50637,4.89479 -0.52525,1.51104 -1.5123,3.99779 -2.19366,5.52576 -0.68136,1.52797 -2.08588,4.20688 -3.12126,5.95312 -1.03537,1.74625 -2.81129,4.42516 -3.94653,5.95313 -1.13522,1.52797 -3.73784,4.45148 -5.7831,6.49676 -2.04528,2.04528 -4.9688,4.64736 -6.49677,5.78259 -1.52795,1.13524 -4.20687,2.91116 -5.95312,3.94653 -1.74625,1.03538 -4.42684,2.44168 -5.95726,3.12488 -1.53042,0.68319 -4.16802,1.71992 -5.86114,2.30373 -1.69311,0.58381 -4.45268,1.36941 -6.13244,1.74615 -1.67976,0.37674 -4.28143,0.85373 -5.78105,1.05988 -1.4996,0.20615 -4.45284,0.43272 -6.5629,0.50333 -2.11005,0.0706 -5.08662,0.0261 -6.61459,-0.0987 -1.52795,-0.12475 -3.96876,-0.42332 -5.42395,-0.66404 -1.45521,-0.24073 -3.95554,-0.7781 -5.55625,-1.19373 -1.60073,-0.41562 -3.74387,-1.04194 -4.7625,-1.39216 -1.85208,-0.63676 -1.85198,-0.63673 -1.82057,-2.99 0.0231,-1.7333 0.17229,-2.67289 0.56638,-3.56516 0.29428,-0.66628 1.28028,-2.09503 2.19108,-3.175 0.91079,-1.07995 2.05399,-2.81658 2.54041,-3.85971 0.49327,-1.05781 0.99991,-2.69598 1.14567,-3.70417 0.14373,-0.99416 0.26164,-3.17686 0.262,-4.85035 2.6e-4,-1.67348 -0.17482,-3.87614 -0.38964,-4.89479 -0.21482,-1.01864 -0.76861,-2.62599 -1.23042,-3.57187 -0.56137,-1.14979 -1.46063,-2.33364 -2.71353,-3.57188 -1.0307,-1.01865 -2.41009,-2.11148 -3.06493,-2.42827 -0.65484,-0.31679 -2.83436,-1.36836 -4.84363,-2.33681 -2.09257,-1.00859 -5.42694,-2.95053 -7.80521,-4.54598 -2.28357,-1.53192 -4.69619,-3.06105 -5.36143,-3.39824 -0.66523,-0.33719 -1.97492,-0.81555 -2.91041,-1.06247 -1.04048,-0.27463 -2.67715,-0.44646 -4.21473,-0.44286 -1.80123,0.004 -3.00092,0.16169 -4.23334,0.555 -0.94588,0.30188 -2.47794,0.99815 -3.40444,1.54771 -0.9265,0.54956 -2.38154,1.74385 -3.23339,2.6541 -1.54882,1.65501 -1.54869,1.655 -1.94924,0.26459 -0.22031,-0.76473 -0.63022,-2.5212 -0.91105,-3.90364 -0.28083,-1.38245 -0.63451,-3.64464 -0.786,-5.02708 -0.15149,-1.38244 -0.35281,-3.61489 -0.44752,-4.96094 -0.17219,-2.44739 -0.17247,-2.4474 4.03334,-2.4474 2.92301,0 4.68043,-0.12357 5.76141,-0.40514 0.85546,-0.22282 2.27032,-0.78644 3.14399,-1.25212 0.87368,-0.46566 2.19272,-1.40158 2.93161,-2.07998 0.7389,-0.6784 1.7541,-1.91582 2.25567,-2.7497 0.5016,-0.83389 1.12982,-2.16188 1.3963,-2.95124 0.26649,-0.78936 0.5977,-2.62153 0.73587,-4.07159 0.15402,-1.61653 0.47199,-3.15006 0.82218,-3.9641 0.39163,-0.91038 2.93372,-4.09047 8.08684,-10.11721 4.73607,-5.53896 7.78026,-9.327277 8.23206,-10.244335 0.63469,-1.288308 0.71675,-1.758666 0.71675,-4.101042 0,-2.312096 -0.0887,-2.835404 -0.70383,-4.14755 -0.38715,-0.82585 -1.19062,-2.029473 -1.78542,-2.674773 -0.59481,-0.645298 -1.76641,-1.537071 -2.60346,-1.981791 -0.83705,-0.444718 -1.96836,-0.878208 -2.51406,-0.963248 -0.54571,-0.085 -1.43231,-0.223759 -1.97042,-0.308509 -0.97838,-0.1541 -0.97837,-0.154252 0.99218,-1.421618 1.08381,-0.69706 3.35936,-2.002224 5.05654,-2.900084 1.69717,-0.89785 3.22703,-1.80256 3.39979,-2.01073 0.71431,-1.60213 -0.0644,-3.24302 -1.79058,-3.27887 -0.23617,0 -0.75724,0.16897 -1.44901,0.45527 -0.10468,0.0454 -0.20924,0.091 -0.31368,0.13694 -0.25181,0.10886 -0.51547,0.22624 -0.80202,0.3607 -1.2442,0.60948 -2.46933,1.25712 -3.67367,1.942 -0.54381,0.31255 -1.08861,0.63226 -1.64745,0.96842 -0.99954,0.59254 -1.98362,1.2108 -2.95124,1.85415 -0.28349,0.18999 -0.61716,0.42843 -0.93793,0.65422 -0.96249,0.67219 -1.90728,1.36937 -2.83341,2.090835 -0.30883,0.23769 -0.62067,0.476447 -0.91106,0.706417 -1.16136,0.934355 -2.29145,1.906922 -3.38842,2.916101 -0.0978,0.0899 -0.19426,0.178644 -0.29198,0.269234 -4.80389,4.483995 -8.92724,9.645459 -12.23956,15.321029 -0.20542,0.362364 -0.40905,0.736294 -0.61391,1.108464 -0.51631,0.92376 -1.01082,1.85953 -1.48312,2.80654 -0.2312,0.46157 -0.46771,0.94367 -0.70486,1.43971 -4.21912,8.97131 -6.41027,18.76187 -6.4177,28.67577 -1.5e-4,37.27923 30.22053,67.50014 67.49976,67.50027 37.27943,1.5e-4 67.50042,-30.22084 67.50027,-67.50027 -1.4e-4,-37.279233 -30.22104,-67.49991 -67.50027,-67.49976 z m 16.48426,6.42441 c 0.068,0.008 0.14135,0.0227 0.22273,0.0419 0.3878,0.0915 1.935,0.57279 3.43855,1.0697 1.50355,0.49691 3.94252,1.43945 5.41982,2.09445 1.4773,0.655 3.64045,1.71156 4.80694,2.34766 1.16649,0.6361 3.28369,1.933939 4.70514,2.884578 1.42145,0.950649 3.50505,2.477268 4.63021,3.392558 1.12516,0.915289 3.10311,2.677701 4.39508,3.91604 1.29197,1.238348 3.2951,3.382635 4.45141,4.765083 1.15631,1.382449 2.97338,3.82323 4.03799,5.423959 1.06461,1.600732 2.54084,4.045192 3.28042,5.432222 1.34468,2.52189 1.34485,2.5219 0.52814,5.68855 -0.44919,1.74165 -0.89593,3.25333 -0.99271,3.35948 -0.0968,0.10615 -0.73564,-1.14401 -1.41955,-2.77812 -0.68391,-1.63411 -1.99012,-4.25257 -2.90266,-5.81877 -0.91253,-1.56619 -2.40006,-3.89194 -3.30523,-5.168677 -0.90518,-1.276749 -2.69953,-3.509606 -3.98787,-4.961454 -1.28833,-1.451839 -3.44113,-3.588746 -4.78369,-4.749065 -1.34254,-1.160308 -3.47674,-2.850997 -4.74286,-3.756876 -1.26612,-0.905879 -3.56553,-2.371697 -5.10976,-3.257166 -1.54425,-0.885469 -4.22316,-2.210494 -5.95313,-2.944523 -1.72997,-0.734039 -4.48461,-1.719869 -6.12107,-2.191079 -1.63645,-0.47122 -3.03848,-0.92026 -3.11609,-0.99787 -0.0776,-0.0776 0.34856,-0.99045 0.94723,-2.02882 0.87936,-1.52524 1.09477,-1.81747 1.57096,-1.76372 z m -11.56157,7.173209 c 0.51819,-0.0025 1.13405,0.04161 1.87431,0.132808 1.1815,0.14561 3.47987,0.561625 5.10718,0.923975 1.62732,0.362347 4.0681,1.026509 5.42396,1.475879 1.35586,0.449367 3.53652,1.295371 4.84621,1.879988 1.30968,0.58463 3.54484,1.723238 4.96662,2.530595 1.42181,0.807357 3.86259,2.424432 5.42396,3.593579 1.56137,1.169157 4.15567,3.438956 5.76554,5.04362 1.60987,1.604654 3.88458,4.201784 5.05499,5.771737 1.17041,1.56997 2.88519,4.18866 3.81062,5.81929 0.92544,1.63062 2.30806,4.51369 3.07216,6.40632 0.76413,1.89263 1.74162,4.81419 2.17248,6.49263 0.43085,1.67845 0.98824,4.35737 1.23817,5.95313 0.30858,1.9702 0.45424,4.4726 0.45424,7.79642 0,3.32382 -0.14566,5.82571 -0.45424,7.79591 -0.24993,1.59576 -0.80732,4.27468 -1.23817,5.95312 -0.43086,1.67845 -1.42277,4.63602 -2.20451,6.57221 -0.78177,1.93619 -2.16429,4.8181 -3.07217,6.40426 -0.90788,1.58615 -2.50682,4.02682 -3.55327,5.42344 -1.04645,1.39663 -2.81821,3.53929 -3.93723,4.76198 -1.11902,1.22269 -3.19238,3.19213 -4.60747,4.37648 -1.41508,1.18435 -3.71282,2.91495 -5.10615,3.84525 -1.39329,0.9303 -3.95317,2.39147 -5.68854,3.24734 -1.73537,0.85587 -3.98882,1.86487 -5.00744,2.24224 -1.01865,0.37736 -2.8963,0.98513 -4.17288,1.35082 -1.27656,0.3657 -3.5983,0.89806 -5.15937,1.18288 -1.56107,0.28482 -3.43392,0.58041 -4.1615,0.65681 -0.813,0.0854 -1.73085,-0.005 -2.38125,-0.23513 -0.58208,-0.20584 -1.369,-0.71944 -1.74873,-1.14153 -0.37977,-0.4221 -0.93754,-1.58824 -1.23972,-2.59106 -0.30217,-1.00282 -0.92248,-3.2519 -1.37821,-4.99815 -0.45573,-1.74624 -0.88224,-3.36513 -0.94775,-3.59719 -0.10289,-0.36449 0.34089,-0.44425 3.25923,-0.58653 1.85803,-0.0906 4.39179,-0.34288 5.63067,-0.56069 1.23889,-0.2178 3.32248,-0.70592 4.63021,-1.08469 1.30773,-0.37876 3.33013,-1.10021 4.4943,-1.603 1.16414,-0.50279 3.06917,-1.46554 4.23333,-2.1394 1.16417,-0.67386 3.00963,-1.88014 4.10104,-2.68098 1.0914,-0.80084 3.06704,-2.5389 4.39043,-3.86229 1.3234,-1.32339 3.06748,-3.30556 3.87522,-4.4049 0.80774,-1.09936 2.07818,-3.06251 2.8236,-4.36253 0.74542,-1.30002 1.82863,-3.57438 2.40708,-5.05395 0.57849,-1.47957 1.34876,-3.91598 1.71153,-5.41414 0.36276,-1.49818 0.80224,-4.24771 0.97668,-6.11022 0.2465,-2.63192 0.2465,-4.1408 0,-6.77272 -0.17444,-1.86251 -0.61392,-4.61256 -0.97668,-6.11073 -0.36277,-1.49817 -1.13304,-3.93458 -1.71153,-5.41414 -0.57845,-1.47958 -1.66166,-3.75342 -2.40708,-5.05344 -0.74542,-1.30002 -1.99397,-3.2275 -2.77451,-4.28295 -0.78055,-1.05545 -2.22314,-2.7713 -3.20601,-3.8132 -0.98288,-1.0419 -2.74279,-2.66405 -3.91087,-3.60443 -1.16807,-0.94038 -3.21771,-2.366113 -4.55476,-3.1688 -1.33706,-0.802687 -3.48632,-1.914673 -4.77594,-2.47065 -1.28958,-0.55599 -3.35044,-1.315682 -4.58008,-1.688269 -1.22963,-0.37259 -3.3076,-0.863587 -4.61729,-1.091407 -1.30969,-0.227817 -3.90131,-0.488705 -5.75934,-0.579292 -2.91834,-0.14228 -3.36212,-0.222038 -3.25923,-0.586528 0.0655,-0.23206 0.49202,-1.850433 0.94775,-3.59668 0.45573,-1.746244 1.07863,-4.008436 1.38441,-5.027083 0.36896,-1.229077 0.83503,-2.132041 1.38493,-2.684591 0.45575,-0.457947 1.28486,-0.95906 1.84278,-1.11311 0.34956,-0.09651 0.7701,-0.14579 1.28829,-0.148311 z m -42.67078,6.459554 c 4.04484,0 4.20877,0.0214 5.57744,0.736389 1.14739,0.599399 1.5521,1.006194 2.17196,2.182812 0.64116,1.217069 0.74064,1.661525 0.62683,2.805514 -0.0744,0.747609 -0.31729,1.700107 -0.5395,2.116667 -0.22221,0.416559 -3.58128,4.448514 -7.46466,8.959655 -3.88336,4.51114 -7.40297,8.73206 -7.82123,9.37979 -0.41826,0.64774 -1.00244,1.82528 -1.29862,2.6169 -0.29618,0.79161 -0.658,2.70242 -0.80409,4.24625 -0.1893,2.00038 -0.45646,3.22522 -0.92914,4.26227 -0.3648,0.80037 -1.20996,2.01188 -1.87792,2.69235 -0.68543,0.69826 -1.91838,1.55903 -2.83084,1.9761 -1.50927,0.68986 -1.89585,0.74584 -5.81773,0.84181 -4.20106,0.1028 -4.2014,0.10288 -4.01939,-1.71152 0.10011,-0.99792 0.36095,-2.88592 0.57929,-4.19561 0.21833,-1.30969 0.68436,-3.52164 1.03559,-4.91546 0.35123,-1.39382 1.05761,-3.73868 1.56993,-5.21054 0.51232,-1.47186 1.4182,-3.78428 2.01332,-5.1387 0.59512,-1.35442 1.67136,-3.50949 2.39158,-4.78886 0.72021,-1.27938 1.8245,-3.124851 2.4536,-4.10104 0.62911,-0.976199 2.01574,-2.899116 3.08147,-4.273124 1.06571,-1.373999 3.24177,-3.844556 4.83588,-5.490105 2.89838,-2.991907 2.89869,-2.991548 7.06623,-2.991548 z m 36.50992,11.39362 c 0.60528,-0.0017 1.40616,0.02599 2.47375,0.06253 2.42494,0.083 5.12757,0.33482 6.2544,0.58291 1.09141,0.24029 2.87735,0.728569 3.96875,1.085205 1.09141,0.35664 3.29734,1.302362 4.90202,2.101682 1.60473,0.79932 3.93362,2.21552 5.17488,3.14709 1.24127,0.93158 3.33231,2.81913 4.64726,4.19458 1.31495,1.37545 3.01319,3.43103 3.77342,4.56768 0.76024,1.13664 1.90388,3.14571 2.54144,4.46484 0.63756,1.31915 1.45443,3.29179 1.8154,4.3832 0.36098,1.09139 0.87299,2.99641 1.13791,4.23333 0.36745,1.71561 0.48163,3.4098 0.48163,7.14375 0,3.73396 -0.11418,5.42815 -0.48163,7.14375 -0.26492,1.23693 -0.77693,3.14194 -1.13791,4.23333 -0.36097,1.09141 -1.17846,3.05594 -1.81643,4.36563 -0.63798,1.30967 -1.7884,3.33376 -2.55695,4.49792 -0.78323,1.1864 -2.73892,3.45775 -4.44934,5.16816 -1.71041,1.71041 -3.98175,3.66559 -5.16816,4.44882 -1.16416,0.76855 -3.18824,1.91949 -4.49792,2.55747 -1.30969,0.63796 -3.27421,1.45429 -4.36562,1.81436 -1.0914,0.36006 -2.87734,0.85163 -3.96875,1.09192 -1.1273,0.24819 -3.83015,0.49983 -6.25802,0.58291 -4.2737,0.14624 -4.27389,0.1463 -4.56509,-1.27641 -0.16016,-0.78249 -0.58064,-3.14907 -0.93483,-5.25911 -0.35419,-2.11004 -0.7919,-5.11504 -0.97255,-6.67763 -0.18065,-1.5626 -0.27735,-2.8901 -0.21498,-2.95021 0.0624,-0.0601 1.00614,0.0668 2.09755,0.28216 1.32214,0.26095 2.82321,0.34564 4.49792,0.25425 1.38245,-0.0754 3.22792,-0.32566 4.10104,-0.55656 0.87313,-0.23089 2.54,-0.87597 3.70417,-1.4335 1.16413,-0.55752 2.85926,-1.57548 3.76669,-2.26188 0.90742,-0.68641 2.30144,-2.03343 3.098,-2.9931 0.79657,-0.95968 1.93174,-2.70697 2.52233,-3.88297 0.59059,-1.17598 1.32294,-3.13993 1.62781,-4.36459 0.46311,-1.86028 0.53433,-2.7745 0.43098,-5.55625 -0.0982,-2.64222 -0.26679,-3.76648 -0.81701,-5.44618 -0.38134,-1.16415 -1.2227,-3.01866 -1.86965,-4.12068 -0.64695,-1.102 -1.92996,-2.78216 -2.85099,-3.73414 -0.92104,-0.95197 -2.5083,-2.26559 -3.52691,-2.9192 -1.01864,-0.6536 -2.665,-1.51088 -3.6587,-1.90479 -0.99366,-0.39392 -2.70079,-0.8875 -3.79356,-1.09657 -1.09278,-0.20909 -2.78021,-0.37536 -3.74964,-0.37001 -0.96946,0.005 -2.59613,0.17174 -3.61477,0.37001 -1.01865,0.19826 -1.90288,0.3115 -1.96526,0.25166 -0.0624,-0.0598 0.0331,-1.37058 0.21239,-2.91248 0.17923,-1.54191 0.61196,-4.54637 0.9617,-6.67712 0.34975,-2.13074 0.77315,-4.514393 0.94103,-5.296829 0.22892,-1.066969 0.28634,-1.333908 2.1022,-1.338936 z m 1.18752,20.251997 c 1.30969,-0.007 3.03609,0.14455 3.83646,0.33744 0.80036,0.1929 2.34822,0.78249 3.43958,1.31052 1.45169,0.70234 2.52006,1.49398 3.98012,2.94917 1.20514,1.20111 2.33476,2.63784 2.85099,3.62614 0.47022,0.90019 1.09023,2.55641 1.3777,3.68039 0.28747,1.12398 0.52244,2.83905 0.52244,3.81114 0,0.97208 -0.23497,2.68715 -0.52244,3.81114 -0.28747,1.12398 -0.91141,2.77968 -1.38648,3.67987 -0.50976,0.96594 -1.67832,2.45082 -2.85099,3.62304 -1.29772,1.29723 -2.58431,2.28655 -3.70882,2.8515 -0.94698,0.47577 -2.37573,1.03912 -3.175,1.25161 -0.79926,0.21249 -2.34611,0.4385 -3.43752,0.50229 -1.09136,0.0638 -2.28203,0.0638 -2.64583,0 -0.36381,-0.0638 -1.40871,-0.30742 -2.32234,-0.54105 -0.96413,-0.24655 -1.76348,-0.61549 -1.90479,-0.87953 -0.13391,-0.25021 -0.36072,-3.56973 -0.50385,-7.37681 -0.17061,-4.53773 -0.17061,-9.30639 0,-13.84412 0.14313,-3.80708 0.36825,-7.124 0.50023,-7.37061 0.13198,-0.24662 0.98928,-0.66445 1.90479,-0.92862 1.03097,-0.29746 2.57096,-0.48524 4.04575,-0.49351 z m -47.77021,31.72209 c 2.56976,0 2.92733,0.0647 4.51084,0.81597 0.94588,0.44879 2.75795,1.55893 4.02662,2.46703 1.26868,0.90812 3.77212,2.50547 5.56297,3.54966 1.79086,1.0442 4.44365,2.41134 5.89525,3.03806 1.45161,0.62672 3.18483,1.53591 3.85144,2.02054 0.66662,0.48462 1.59401,1.45785 2.06086,2.16266 0.46685,0.70481 1.03252,1.91402 1.25729,2.68718 0.31597,1.08691 0.38779,2.40828 0.31729,5.826 -0.0867,4.20196 -0.12655,4.48725 -0.80615,5.78104 -0.39321,0.74855 -1.36227,2.10403 -2.15387,3.0117 -0.79161,0.90767 -1.75544,2.2751 -2.14199,3.03909 -0.38655,0.764 -0.87314,2.02841 -1.08107,2.80965 -0.20794,0.78124 -0.37965,1.9266 -0.38138,2.54507 -0.002,0.72305 -0.12116,1.12321 -0.33383,1.12137 -0.18189,-0.002 -1.46182,-0.63267 -2.84427,-1.40249 -1.38244,-0.76983 -3.04932,-1.73798 -3.70416,-2.15129 -0.65485,-0.4133 -2.55985,-1.77081 -4.23334,-3.01687 -1.67348,-1.24606 -4.59569,-3.819 -6.49417,-5.71748 -1.89849,-1.89849 -4.50494,-4.85994 -5.7919,-6.58151 -1.28696,-1.7216 -3.18627,-4.58257 -4.22093,-6.35724 -1.03465,-1.77467 -2.336,-4.24849 -2.8913,-5.49734 -1.00962,-2.27065 -1.00934,-2.27063 -0.19482,-3.99459 0.44799,-0.94817 1.29696,-2.27194 1.88671,-2.94194 0.70783,-0.80413 1.75911,-1.55754 3.09284,-2.2164 1.95067,-0.96363 2.11653,-0.99787 4.81107,-0.99787 z"
       sodipodi:nodetypes="scccsssssssssssssssssssssssssssssssssssssscssssssssssssssssssssssssssssssssssssssscssssssssssssssssssssssssscccccccccccsccccccsscsssssssssssssssssssssssssssssssssssssssssssssssssssscsssssssssssssssssssssssssssssssssssssssssssssssssssssssssssssssssssssssssssssssssssssssssssssssssscsssssscssssssssssssssssssscsssssssssssssssssssssssssssss" /></g></svg>
