<svg width="510.236" height="510.236" viewBox="0 0 135 135" xml:space="preserve" xmlns="http://www.w3.org/2000/svg"><path style="fill:#4986d7;fill-opacity:1;stroke-width:.333964" d="M544.558-113.035a67.499 67.499 0 0 0-16.407 2.064c-.344.134-.592.267-.74.401-1.067 1.272-1.101 2.791.387 3.435.724.3 1.23.265 3.824-.272 1.644-.34 4.144-.767 5.556-.947 1.412-.18 4.889-.32 7.726-.31 3.163.01 6.217.173 7.893.42 1.503.222 2.787.457 2.853.523.066.067-.355.94-.937 1.942-1.056 1.82-1.056 1.821-4.44 1.821-3.19 0-3.464.042-4.782.736-.77.406-1.866 1.204-2.437 1.775-.57.572-1.27 1.493-1.553 2.048-.283.555-.886 2.282-1.34 3.838-.452 1.556-1.29 4.767-1.863 7.137-.571 2.37-1.4 6.215-1.84 8.543-.44 2.328-1.038 5.9-1.328 7.938a238.76 238.76 0 0 0-.925 7.54c-.219 2.11-.535 6.337-.704 9.393-.186 3.356-.245 8.542-.149 13.097.088 4.147.342 9.564.565 12.038.223 2.474.588 5.927.811 7.673.223 1.747.761 5.259 1.196 7.805a214.237 214.237 0 0 0 1.71 8.75 216.133 216.133 0 0 0 1.996 8.07c.592 2.173 1.354 4.563 1.693 5.312.34.75 1.101 1.847 1.693 2.439.592.592 1.706 1.407 2.475 1.812 1.307.69 1.595.735 4.44.708 2.181-.02 4.017-.23 6.483-.74 1.891-.391 5.095-1.261 7.119-1.933 2.023-.672 5.297-2.025 7.276-3.006 1.978-.981 4.846-2.62 6.374-3.64 1.528-1.022 3.922-2.813 5.32-3.98 1.398-1.166 3.584-3.229 4.86-4.583 1.274-1.354 3.131-3.544 4.125-4.867.995-1.322 2.43-3.406 3.191-4.63.761-1.224 2.122-3.773 3.025-5.665.903-1.891 2.007-4.514 2.454-5.827a79.594 79.594 0 0 0 1.49-5.063 78.11 78.11 0 0 0 1.122-5.418c.32-1.968.449-4.423.457-8.695.01-4.346-.112-6.774-.446-8.996-.458-3.042-.458-3.042.698-7.011 1.157-3.969 1.157-3.97 1.749-1.986.325 1.09.867 3.293 1.203 4.895.336 1.601.735 4.043.887 5.425.152 1.383.35 3.704.44 5.16.09 1.455.033 4.328-.125 6.384-.158 2.057-.514 5.033-.791 6.615-.277 1.581-.751 3.842-1.055 5.023-.303 1.18-.98 3.384-1.506 4.895a84.874 84.874 0 0 1-2.194 5.525c-.681 1.528-2.086 4.207-3.121 5.954-1.035 1.746-2.811 4.425-3.947 5.953-1.135 1.528-3.737 4.451-5.783 6.496-2.045 2.046-4.968 4.648-6.496 5.783-1.528 1.135-4.207 2.911-5.954 3.947-1.746 1.035-4.426 2.441-5.957 3.124-1.53.684-4.168 1.72-5.86 2.304-1.694.584-4.454 1.37-6.133 1.746-1.68.377-4.282.854-5.781 1.06-1.5.206-4.453.433-6.563.503-2.11.071-5.087.027-6.615-.098a80.32 80.32 0 0 1-5.424-.664c-1.455-.241-3.955-.778-5.556-1.194-1.6-.416-3.744-1.042-4.763-1.392-1.852-.637-1.852-.637-1.82-2.99.023-1.733.172-2.673.566-3.565.295-.667 1.28-2.095 2.191-3.175.911-1.08 2.054-2.817 2.54-3.86.494-1.058 1-2.696 1.146-3.704.144-.994.262-3.177.262-4.85 0-1.674-.174-3.877-.39-4.895-.214-1.019-.768-2.626-1.23-3.572-.561-1.15-1.46-2.334-2.713-3.572-1.03-1.019-2.41-2.112-3.065-2.428-.655-.317-2.834-1.369-4.844-2.337-2.092-1.009-5.427-2.95-7.805-4.546-2.284-1.532-4.696-3.061-5.361-3.398-.666-.338-1.975-.816-2.91-1.063-1.041-.274-2.678-.446-4.216-.443-1.8.004-3 .162-4.233.555-.946.302-2.478.998-3.404 1.548-.927.55-2.382 1.744-3.234 2.654-1.549 1.655-1.548 1.655-1.949.265-.22-.765-.63-2.522-.911-3.904a67.556 67.556 0 0 1-.786-5.027 155.224 155.224 0 0 1-.448-4.961c-.172-2.447-.172-2.447 4.034-2.447 2.923 0 4.68-.124 5.761-.406.856-.222 2.27-.786 3.144-1.252.874-.465 2.193-1.401 2.932-2.08.739-.678 1.754-1.915 2.255-2.75.502-.833 1.13-2.161 1.397-2.95.266-.79.597-2.622.736-4.072.154-1.617.472-3.15.822-3.964.391-.91 2.934-4.09 8.087-10.117 4.736-5.54 7.78-9.328 8.232-10.245.634-1.288.716-1.758.716-4.1 0-2.313-.088-2.836-.703-4.148-.387-.826-1.191-2.03-1.786-2.675s-1.766-1.537-2.603-1.982c-.837-.445-1.969-.878-2.514-.963l-1.97-.309c-.98-.154-.98-.154.991-1.421 1.084-.697 3.36-2.003 5.057-2.9 1.697-.898 3.227-1.803 3.4-2.011.714-1.602-.065-3.243-1.79-3.279-.237 0-.758.169-1.45.455a66.082 66.082 0 0 0-1.115.498 67.502 67.502 0 0 0-5.322 2.91c-1 .593-1.983 1.211-2.95 1.854-.284.19-.618.429-.939.655a67.507 67.507 0 0 0-2.833 2.09c-.309.238-.62.477-.911.707a67.502 67.502 0 0 0-3.68 3.185 67.5 67.5 0 0 0-12.24 15.321c-.206.363-.41.737-.614 1.109a69.53 69.53 0 0 0-1.483 2.806c-.231.462-.468.944-.705 1.44a67.5 67.5 0 0 0-6.418 28.676c0 37.279 30.22 67.5 67.5 67.5s67.5-30.22 67.5-67.5-30.22-67.5-67.5-67.5zm16.484 6.424c.068.008.142.023.223.042.388.092 1.935.573 3.439 1.07a71.743 71.743 0 0 1 5.42 2.094c1.477.655 3.64 1.712 4.806 2.348 1.167.636 3.284 1.934 4.705 2.885 1.422.95 3.505 2.477 4.63 3.392 1.126.916 3.104 2.678 4.396 3.916 1.292 1.239 3.295 3.383 4.451 4.765 1.156 1.383 2.974 3.824 4.038 5.424 1.065 1.601 2.541 4.046 3.28 5.433 1.345 2.521 1.345 2.521.529 5.688-.45 1.742-.896 3.253-.993 3.36-.097.106-.736-1.144-1.42-2.778-.683-1.635-1.99-4.253-2.902-5.82-.913-1.565-2.4-3.891-3.305-5.168-.906-1.277-2.7-3.51-3.988-4.961-1.289-1.452-3.441-3.59-4.784-4.75-1.343-1.16-3.477-2.85-4.743-3.756-1.266-.906-3.565-2.372-5.11-3.257-1.544-.886-4.223-2.211-5.953-2.945-1.73-.734-4.484-1.72-6.12-2.191-1.637-.471-3.04-.92-3.117-.998-.078-.078.349-.99.947-2.029.88-1.525 1.095-1.817 1.571-1.764zm-11.561 7.174a14.94 14.94 0 0 1 1.874.132c1.181.146 3.48.562 5.107.924 1.627.363 4.068 1.027 5.424 1.476a63.102 63.102 0 0 1 4.846 1.88c1.31.585 3.545 1.724 4.967 2.53 1.422.808 3.863 2.425 5.424 3.594 1.561 1.17 4.156 3.44 5.765 5.044 1.61 1.605 3.885 4.202 5.055 5.772 1.17 1.57 2.886 4.189 3.811 5.82.925 1.63 2.308 4.513 3.072 6.405.764 1.893 1.742 4.815 2.173 6.493.43 1.679.988 4.357 1.238 5.953.308 1.97.454 4.473.454 7.797 0 3.323-.146 5.825-.454 7.796-.25 1.595-.807 4.274-1.238 5.953-.431 1.678-1.423 4.636-2.205 6.572s-2.164 4.818-3.072 6.404c-.908 1.586-2.507 4.027-3.553 5.424-1.047 1.396-2.818 3.539-3.937 4.762-1.12 1.222-3.193 3.192-4.608 4.376-1.415 1.184-3.713 2.915-5.106 3.845-1.393.93-3.953 2.392-5.689 3.248-1.735.855-3.988 1.864-5.007 2.242a70.729 70.729 0 0 1-4.173 1.35c-1.277.366-3.598.899-5.16 1.184-1.56.284-3.433.58-4.16.656-.814.086-1.732-.004-2.382-.235-.582-.206-1.37-.72-1.749-1.141-.38-.422-.937-1.589-1.24-2.591A178.544 178.544 0 0 1 543.58-.77a492.594 492.594 0 0 0-.947-3.598c-.103-.364.34-.444 3.259-.586 1.858-.09 4.392-.343 5.63-.56a53.467 53.467 0 0 0 4.63-1.086c1.308-.378 3.33-1.1 4.495-1.603a49.14 49.14 0 0 0 4.233-2.139 54.8 54.8 0 0 0 4.101-2.681c1.092-.8 3.067-2.539 4.39-3.862 1.324-1.324 3.068-3.306 3.876-4.405.808-1.1 2.078-3.063 2.824-4.363.745-1.3 1.828-3.574 2.407-5.054.578-1.48 1.348-3.916 1.711-5.414.363-1.498.802-4.247.977-6.11.246-2.632.246-4.14 0-6.773-.175-1.862-.614-4.612-.977-6.11-.363-1.499-1.133-3.935-1.711-5.415-.579-1.48-1.662-3.753-2.407-5.053-.746-1.3-1.994-3.228-2.775-4.283-.78-1.055-2.223-2.771-3.206-3.813-.983-1.042-2.743-2.664-3.91-3.605-1.169-.94-3.219-2.366-4.556-3.168-1.337-.803-3.486-1.915-4.776-2.471-1.29-.556-3.35-1.316-4.58-1.688a47.13 47.13 0 0 0-4.617-1.092c-1.31-.228-3.901-.488-5.76-.579-2.918-.142-3.361-.222-3.258-.587.065-.232.492-1.85.947-3.596a184.314 184.314 0 0 1 1.385-5.027c.369-1.23.835-2.132 1.385-2.685.455-.458 1.284-.959 1.842-1.113.35-.097.77-.146 1.289-.148zm-42.671 6.46c4.045 0 4.209.02 5.577.736 1.148.599 1.552 1.006 2.172 2.182.641 1.217.74 1.662.627 2.806-.074.748-.317 1.7-.54 2.117-.222.416-3.58 4.448-7.464 8.96-3.883 4.51-7.403 8.731-7.821 9.379-.419.648-1.003 1.825-1.299 2.617-.296.792-.658 2.702-.804 4.246-.19 2-.456 3.225-.93 4.262-.364.8-1.21 2.012-1.877 2.693-.685.698-1.918 1.559-2.83 1.976-1.51.69-1.897.746-5.819.842-4.2.103-4.201.103-4.019-1.712.1-.998.361-2.886.58-4.195.218-1.31.684-3.522 1.035-4.916a74.942 74.942 0 0 1 1.57-5.21 84.669 84.669 0 0 1 2.013-5.14 65.692 65.692 0 0 1 2.392-4.788 98.047 98.047 0 0 1 2.453-4.101c.63-.976 2.016-2.9 3.082-4.273 1.065-1.374 3.242-3.845 4.836-5.49 2.898-2.992 2.898-2.992 7.066-2.992zm36.51 11.393c.605-.002 1.406.026 2.474.062 2.425.083 5.127.335 6.254.583a50.3 50.3 0 0 1 3.969 1.085c1.091.357 3.297 1.303 4.902 2.102 1.604.8 3.933 2.216 5.175 3.147 1.24.932 3.332 2.82 4.647 4.195 1.315 1.375 3.013 3.43 3.773 4.568.76 1.136 1.904 3.145 2.542 4.464.637 1.32 1.454 3.292 1.815 4.384a49.072 49.072 0 0 1 1.138 4.233c.367 1.715.482 3.41.482 7.144s-.115 5.428-.482 7.143a49.072 49.072 0 0 1-1.138 4.234c-.36 1.091-1.178 3.056-1.816 4.365-.638 1.31-1.789 3.334-2.557 4.498-.783 1.187-2.74 3.458-4.45 5.168s-3.981 3.666-5.168 4.45c-1.164.768-3.188 1.919-4.498 2.557-1.31.638-3.274 1.454-4.365 1.814-1.092.36-2.878.852-3.969 1.092-1.127.248-3.83.5-6.258.583-4.274.146-4.274.146-4.565-1.277-.16-.782-.58-3.149-.935-5.259-.354-2.11-.792-5.115-.973-6.677-.18-1.563-.277-2.89-.215-2.95.063-.06 1.007.066 2.098.282 1.322.26 2.823.345 4.498.254 1.382-.075 3.228-.326 4.101-.557.873-.23 2.54-.876 3.704-1.433 1.164-.558 2.86-1.576 3.767-2.262.907-.686 2.301-2.033 3.098-2.993.796-.96 1.932-2.707 2.522-3.883.59-1.176 1.323-3.14 1.628-4.365.463-1.86.534-2.774.431-5.556-.098-2.642-.267-3.766-.817-5.446-.381-1.164-1.223-3.019-1.87-4.12-.647-1.103-1.93-2.783-2.85-3.735-.922-.952-2.509-2.265-3.528-2.92-1.018-.653-2.665-1.51-3.658-1.904-.994-.394-2.701-.887-3.794-1.096-1.093-.21-2.78-.376-3.75-.37-.969.005-2.596.171-3.614.37-1.019.198-1.903.311-1.966.251-.062-.06.034-1.37.213-2.912.18-1.542.612-4.547.962-6.677.35-2.131.773-4.515.94-5.297.23-1.067.287-1.334 2.103-1.34zm1.187 20.252c1.31-.007 3.036.144 3.837.337.8.193 2.348.783 3.44 1.31 1.451.703 2.52 1.495 3.98 2.95 1.205 1.201 2.334 2.638 2.85 3.626.47.9 1.09 2.557 1.378 3.68.288 1.124.523 2.84.523 3.812s-.235 2.687-.523 3.81c-.287 1.125-.911 2.78-1.386 3.68-.51.967-1.679 2.451-2.851 3.624-1.298 1.297-2.585 2.286-3.71 2.851-.946.476-2.375 1.04-3.174 1.252-.8.212-2.346.438-3.438.502-1.091.064-2.282.064-2.645 0-.364-.064-1.41-.307-2.323-.541-.964-.247-1.763-.615-1.905-.88-.133-.25-.36-3.57-.503-7.376a186.864 186.864 0 0 1 0-13.844c.143-3.808.368-7.124.5-7.371.132-.247.99-.664 1.905-.929 1.03-.297 2.57-.485 4.045-.493zm-47.77 31.722c2.57 0 2.927.065 4.511.816.946.449 2.758 1.559 4.027 2.467 1.268.908 3.772 2.505 5.563 3.55 1.79 1.044 4.443 2.41 5.895 3.038 1.451.626 3.185 1.536 3.851 2.02.667.485 1.594 1.458 2.061 2.163.467.705 1.033 1.914 1.257 2.687.316 1.087.388 2.408.318 5.826-.087 4.202-.127 4.487-.806 5.781-.394.749-1.363 2.104-2.154 3.012-.792.907-1.756 2.275-2.142 3.039-.387.764-.873 2.028-1.081 2.81-.208.78-.38 1.926-.382 2.545-.002.723-.12 1.123-.334 1.12-.181 0-1.461-.632-2.844-1.402-1.382-.77-3.05-1.738-3.704-2.15-.655-.414-2.56-1.772-4.233-3.018-1.674-1.246-4.596-3.819-6.495-5.717-1.898-1.899-4.504-4.86-5.791-6.582-1.287-1.721-3.187-4.582-4.221-6.357-1.035-1.775-2.336-4.248-2.892-5.497-1.01-2.27-1.009-2.27-.195-3.995.448-.948 1.297-2.272 1.887-2.942.708-.804 1.76-1.557 3.093-2.216 1.95-.964 2.117-.998 4.811-.998z" transform="translate(-477.058 113.035)"/></svg>